<?xml version="1.0" encoding="UTF-8"?><!DOCTYPE svg PUBLIC "-//W3C//DTD SVG 1.1//EN" "http://www.w3.org/Graphics/SVG/1.1/DTD/svg11.dtd"><svg enable-background="new 0 0 182 272" version="1.1" viewBox="0 0 182 272" xml:space="preserve" xmlns="http://www.w3.org/2000/svg"><path d="M6,6v26h10c0-4.44,3.06-9.5,7.5-9.5S31,27.56,31,32h46V6H6z" fill="#E8F3FC"/><path d="m79 1h-75c-1.38 0-3 1.62-3 3v30c0 1.38 1.62 3 3 3h12v48c0 1.38 1.12 2.5 2.5 2.5s2.5-1.12 2.5-2.5v-54c0-1.68 0.82-3.5 2.5-3.5s2.5 1.82 2.5 3.5v28c0 1.38 1.12 2.5 2.5 2.5s2.5-1.121 2.5-2.5v-9c0-1.68 1.82-3.5 3.5-3.5s3.5 1.82 3.5 3.5v9c0 1.38 1.12 2.5 2.5 2.5s2.5-1.12 2.5-2.5v-4c0-1.68 1.319-3.5 3-3.5 1.68 0 3 1.82 3 3.5v8c0 1.38 1.121 2.5 2.5 2.5 1.381 0 2.5-1.121 2.5-2.5v-3c0-1.68 1.32-3.5 3-3.5s3 1.82 3 3.5v35h5v-35c0-4.44-2.561-8.5-7-8.5-1.16 0-3 0.5-4 1.5-0.82-3.569-3.191-6.5-7-6.5-1.181 0-3 0.5-4 1.5-0.92-3.43-4.28-6.5-8-6.5-1.08 0-3 0.5-4 1.5v-6h48c1.38 0 3-1.62 3-3v-30c0-1.39-1.62-3-3-3zm-2 31h-46c0-4.44-3.06-9.5-7.5-9.5s-7.5 5.06-7.5 9.5h-10v-26h71v26z" fill="#555"/><path d="m33.28 11.11c-1.15 0-2.07 0.93-2.07 2.07s0.93 2.07 2.07 2.07c1.15 0 2.07-0.93 2.07-2.07s-0.93-2.07-2.07-2.07z"/><circle cx="50.649" cy="13.18" r="2.07"/><path d="m50.649 17.4c-1.139 0-2.069 0.93-2.069 2.07s0.931 2.07 2.069 2.07c1.15 0 2.07-0.93 2.07-2.07 1e-3 -1.15-0.929-2.07-2.07-2.07z"/><path d="m56.681 17.4c-1.15 0-2.07 0.93-2.07 2.07s0.92 2.07 2.07 2.07c1.149 0 2.069-0.93 2.069-2.07 0-1.15-0.931-2.07-2.069-2.07z"/><path d="m50.649 23.68c-1.139 0-2.069 0.93-2.069 2.07s0.931 2.07 2.069 2.07c1.15 0 2.07-0.93 2.07-2.07s-0.929-2.07-2.07-2.07z"/><circle cx="67.851" cy="13.18" r="2.07"/><path d="m67.851 17.4c-1.141 0-2.07 0.93-2.07 2.07s0.93 2.07 2.07 2.07c1.149 0 2.069-0.93 2.069-2.07 0-1.15-0.93-2.07-2.069-2.07z"/><path d="m67.851 23.68c-1.141 0-2.07 0.93-2.07 2.07s0.93 2.07 2.07 2.07c1.149 0 2.069-0.93 2.069-2.07s-0.93-2.07-2.069-2.07z"/><path d="m33.28 17.4c-1.15 0-2.07 0.93-2.07 2.07s0.93 2.07 2.07 2.07c1.15 0 2.07-0.93 2.07-2.07 0-1.15-0.93-2.07-2.07-2.07z"/><path d="m6 120v43h77v-43h-77zm32.168 28.606c-4.088-0.994-9.168-3.733-9.168-6.606 0-2 6-7 13-7 2.413 0 4.713 0.597 6.684 1.458m1.85 0.936c2.715 1.57 4.466 3.526 4.466 4.606 0 2-7 7-14 7-0.164 0-0.335-6e-3 -0.512-0.018m10.046-11.588-10.046 11.589m8.196-12.525-10.516 12.148" fill="#E8F3FC"/><path d="m83 101h-77c-2.92 0-5 2.08-5 5v57c0 2.92 2.08 5 5 5h77c2.92 0 5-2.08 5-5v-57c0-2.92-2.08-5-5-5zm0 62h-77v-43h77v43zm0-46h-77v-11h77v11z" fill="#555"/><path d="m33.828 149.69c-2.056-1.881-3.973-3.499-5.728-5.275-1.83-1.853-1.766-2.166-0.063-4.099 3.515-3.986 7.723-6.774 13.148-7.194 1.557-0.121 3.209 0.087 4.716 0.506 1.279 0.356 1.455 0.519 1.455 0.519l6.502-7.453 2.204 1.334-25.281 29.063-2.281-1.253 5.328-6.148zm11.575-12.933c-4.604-2.844-12.324 0.978-15.69 5.79 1.542 1.326 3.072 2.741 4.722 3.998 0.447 0.341 1.412 0.479 1.869 0.226 0.774-0.432 1.29-1.185 0.743-2.287-0.982-1.979-0.663-3.912 0.74-5.566 1.439-1.698 3.291-2.28 5.528-1.792 0.638 0.139 1.611 0.339 2.088-0.369zm-6.036 6.606c1.117-1.296 2.051-2.38 3.092-3.588-2.435-0.666-3.946 1.106-3.092 3.588zm1.951 8.261c6.494-0.154 11.296-3.462 15.199-8.313 0.343-0.426 0.279-1.628-0.083-2.09-1.082-1.381-2.337-2.651-3.652-3.821-0.724-0.644-1.282-1.204-1.282-1.204l-1.65 1.909c1.131 1.069 2.277 2.101 3.323 3.28 0.314 0.354 0.434 1.396 0.171 1.667-3.205 3.314-6.639 6.128-12.5 5.537l-2.244 2.483c0 1e-3 1.009 0.552 2.718 0.552z" clip-rule="evenodd" fill-rule="evenodd"/><path d="m11.48 114.41c1.56 0 2.82-1.26 2.82-2.82s-1.26-2.82-2.82-2.82-2.82 1.26-2.82 2.82 1.26 2.82 2.82 2.82z" fill="#555"/><circle cx="20" cy="111.59" r="2.82" fill="#555"/><circle cx="28.52" cy="111.59" r="2.82" fill="#555"/><path d="M110,6v48h66V6H110z M132.5,42c-6.903,0-12.5-5.597-12.5-12.5S125.597,17,132.5,17S145,22.597,145,29.5  S139.403,42,132.5,42z" fill="#E8F3FC"/><path d="m174 1h-62c-4.46 0-7 3.54-7 8v42c0 4.459 2.54 8 7 8h23c-0.471 4.359-2.02 10-5 10-0.83 0-2 0.67-2 1.5s1.17 1.5 2 1.5h26c0.83 0 2-0.669 2-1.5s-1.17-1.5-2-1.5c-2.969 0-4.521-5.641-5-10h23c4.461 0 7-3.541 7-8v-42c0.01-4.46-2.539-8-7-8zm-23 68h-16c1.93-2.93 2.73-7.201 3-10h10c0.271 2.799 1.07 7.07 3 10zm25-18c0 1.709-1.299 3-3 3h-60c-1.71 0-3-1.301-3-3v-42c0-1.71 1.3-3 3-3h60c1.711 0 3 1.3 3 3v42z" fill="#555"/><path d="m159.31 13.12c-0.619-0.55-1.57-0.48-2.119 0.14-0.551 0.62-0.48 1.57 0.139 2.12 4.23 3.71 7.17 9.121 7.17 14.621s-2.939 10.67-7.17 14.379c-0.619 0.551-0.68 1.49-0.139 2.121 0.299 0.34 0.709 0.51 1.129 0.51 0.35 0 0.701-0.121 0.99-0.371 4.88-4.28 8.189-10.279 8.189-16.64 0-6.379-3.309-12.59-8.189-16.88z"/><path d="m155.17 17.15c-0.629-0.54-1.58-0.46-2.119 0.17-0.541 0.63-0.461 1.58 0.17 2.11 3.109 2.65 5.279 6.58 5.279 10.57s-2.17 7.67-5.279 10.33c-0.631 0.54-0.711 1.479-0.17 2.11 0.301 0.35 0.721 0.529 1.141 0.529 0.34 0 0.689-0.119 0.969-0.359 3.781-3.221 6.34-7.74 6.34-12.61s-2.55-9.63-6.331-12.85z"/><path d="m151 21.17c-0.648-0.52-1.59-0.41-2.109 0.23-0.52 0.65-0.42 1.59 0.23 2.11 1.98 1.59 3.379 4.03 3.379 6.49s-1.398 4.67-3.379 6.25c-0.65 0.52-0.75 1.459-0.23 2.11 0.301 0.37 0.73 0.561 1.17 0.561 0.33 0 0.66-0.111 0.939-0.33 2.691-2.161 4.5-5.21 4.5-8.59s-1.809-6.681-4.5-8.831z"/><circle cx="132.5" cy="29.5" r="12.5" fill="none" stroke="#000" stroke-miterlimit="10" stroke-width="2"/><circle cx="132.5" cy="24" r="1.75"/><path d="m138 26-4 1h-3l-4-1c-0.34-0.05-0.351 1.95 0 2l4 1v2l-3 5c-0.16 0.39 1.84 1.39 2 1l2.5-5 2.5 5c0.16 0.39 2.16-0.61 2-1l-3-5v-2l4-1c0.341-0.05 0.34-2.05 0-2z"/><path d="m104 106v43h72v-43h-72zm65 36h-58v-28h58v28z" fill="#E8F3FC"/><path d="m178 101h-76c-1.379 0-3 1.619-3 3v47c0 1.379 1.621 3 3 3h76c1.379 0 3-1.621 3-3v-47c0-1.381-1.621-3-3-3zm-2 48h-72v-43h72v43z" fill="#555"/><path d="m110 144h60c0.41 0 1-0.59 1-1v-30c0-0.41-0.59-1-1-1h-60c-0.41 0-1 0.59-1 1v30c0.01 0.41 0.58 1 1 1zm40-12h-9v-9h9v9zm-10 0h-9v-9h9v9zm-10 0h-9v-9h9v9zm-10 0h-9v-9h9v9zm-9 1h9v9l-9 0.068v-9.068zm10 0h38v9.068h-38v-9.068zm48.06 9.068h-9.06v-9.068h9.06v9.068zm0-10.068h-18.06v-9h10v-9h8.06v18zm-9.06-10h-9v-8h9v8zm-10 0h-9v-8h9v8zm-10 0h-9v-8h9v8zm-10 0h-9v-8h9v8zm-19-8h9v8h-9v-8z"/><path d="m6 210v56h58v-56h-58zm41.681 39.02c-0.605 4.835-4.267 7.64-9.072 7.825-5.781 0.221-10.093-1.818-12.673-7.333-1.318-2.815-3.071-5.418-4.439-8.212-0.344-0.702 0.042-1.773 0.093-2.674 0.837 0.293 1.87 0.368 2.467 0.929 1.038 0.97 1.746 2.297 2.716 3.357 0.381 0.415 1.094 0.513 1.658 0.755 0.226-0.561 0.642-1.118 0.647-1.682 0.051-5.312 0.032-10.626 0.033-15.94 0-0.509-0.164-1.103 0.039-1.509 0.367-0.734 0.952-1.355 1.445-2.023 0.543 0.697 1.513 1.367 1.557 2.096 0.181 2.974 0.079 5.964 0.083 8.948 0 0.51-0.126 1.072 0.047 1.515 0.207 0.525 0.673 0.945 1.027 1.41 0.388-0.453 0.917-0.848 1.125-1.376 0.199-0.506 0.079-1.147 0.08-1.728 9e-3 -3.785-0.063-7.574 0.081-11.354 0.03-0.778 0.789-2.102 1.341-2.177 1.497-0.199 1.479 1.156 1.479 2.281-4e-3 3.784-2e-3 7.569 0 11.354 1e-3 0.51-0.137 1.098 0.063 1.51 0.282 0.574 0.822 1.019 1.25 1.52 0.347-0.538 0.791-1.038 1.007-1.626 0.164-0.447 0.039-1.006 0.041-1.516 0-3.13-2e-3 -6.26 3e-3 -9.39 0-1.102-0.116-2.366 1.46-2.381 1.474-0.014 1.387 1.223 1.404 2.221 0.055 3.419 0.056 6.841 0.089 10.259 6e-3 0.728-0.054 1.487 0.135 2.169 0.127 0.454 0.64 0.797 0.981 1.189 0.369-0.434 1.031-0.849 1.057-1.303 0.12-2.104 0.037-4.219 0.085-6.329 0.02-0.865 0.061-1.771 0.338-2.568 0.167-0.482 0.822-1.104 1.238-1.091 0.448 0.016 1.042 0.621 1.267 1.114 0.255 0.558 0.221 1.275 0.227 1.924 0.02 2.837 8e-3 5.677 8e-3 8.516 0.061 2e-3 0.121 3e-3 0.182 6e-3 -0.169 3.774-0.102 7.578-0.569 11.314z" fill="#E8F3FC"/><path d="m65 205h-60c-1.177 0-4 2.143-4 4v58c0 1.854 2.823 4 4 4h60c1.177 0 4-2.146 4-4v-58c0-1.857-2.823-4-4-4zm-1 61h-58v-56h58v56z" fill="#555"/><path d="m50.362 227.92c3e-3 -0.5-0.152-1.005-0.266-1.498-0.389-1.692-1.449-2.609-3.141-2.771-0.617-0.06-1.238-0.096-1.644-0.128-0.529-1.221-0.696-2.687-1.434-3.105-2.111-1.197-4.429-2.047-6.722-2.866-0.743-0.265-1.944-0.363-2.45 0.062-1.836 1.544-3.872 2.393-6.092 3.204-0.987 0.361-1.683 2.751-1.761 4.262-0.229 4.408-0.081 8.839-0.081 13.262-0.169 0.064-0.337 0.128-0.506 0.194-0.116-0.185-0.208-0.391-0.35-0.548-1.967-2.196-3.951-2.612-5.804-1.231-1.756 1.309-1.983 3.313-0.601 5.83 1.636 2.979 3.392 5.894 4.956 8.912 2.388 4.611 5.998 7.041 11.14 7.679 8.024 0.995 13.877-3.102 14.475-11.207 0.488-6.655 0.231-13.366 0.281-20.051zm-2.681 21.098c-0.605 4.835-4.267 7.64-9.072 7.825-5.781 0.221-10.093-1.818-12.673-7.333-1.318-2.815-3.071-5.418-4.439-8.212-0.344-0.702 0.042-1.773 0.093-2.674 0.837 0.293 1.87 0.368 2.467 0.929 1.038 0.97 1.746 2.297 2.716 3.357 0.381 0.415 1.094 0.513 1.658 0.755 0.226-0.561 0.642-1.118 0.647-1.682 0.051-5.312 0.032-10.626 0.033-15.94 0-0.509-0.164-1.103 0.039-1.509 0.367-0.734 0.952-1.355 1.445-2.023 0.543 0.697 1.513 1.367 1.557 2.096 0.181 2.974 0.079 5.964 0.083 8.948 0 0.51-0.126 1.072 0.047 1.515 0.207 0.525 0.673 0.945 1.027 1.41 0.388-0.453 0.917-0.848 1.125-1.376 0.199-0.506 0.079-1.147 0.08-1.728 9e-3 -3.785-0.063-7.574 0.081-11.354 0.03-0.778 0.789-2.102 1.341-2.177 1.497-0.199 1.479 1.156 1.479 2.281-4e-3 3.784-2e-3 7.569 0 11.354 1e-3 0.51-0.137 1.098 0.063 1.51 0.282 0.574 0.822 1.019 1.25 1.52 0.347-0.538 0.791-1.038 1.007-1.626 0.164-0.447 0.039-1.006 0.041-1.516 0-3.13-2e-3 -6.26 3e-3 -9.39 0-1.102-0.116-2.366 1.46-2.381 1.474-0.014 1.387 1.223 1.404 2.221 0.055 3.419 0.056 6.841 0.089 10.259 6e-3 0.728-0.054 1.487 0.135 2.169 0.127 0.454 0.64 0.797 0.981 1.189 0.369-0.434 1.031-0.849 1.057-1.303 0.12-2.104 0.037-4.219 0.085-6.329 0.02-0.865 0.061-1.771 0.338-2.568 0.167-0.482 0.822-1.104 1.238-1.091 0.448 0.016 1.042 0.621 1.267 1.114 0.255 0.558 0.221 1.275 0.227 1.924 0.02 2.837 8e-3 5.677 8e-3 8.516 0.061 2e-3 0.121 3e-3 0.182 6e-3 -0.169 3.774-0.102 7.578-0.569 11.314z" clip-rule="evenodd" fill-rule="evenodd"/><path d="m137 193v73h39v-73h-39zm18.371 51.362c-0.022 0.917-1.465 2.426-2.391 2.542-1.32 0.164-2.771-0.705-4.339-1.184 1.942-2.064 3.157-3.357 4.372-4.646-0.293-0.275-0.584-0.552-0.876-0.827-0.493 0.441-0.96 0.917-1.485 1.314-1.873 1.418-3.86 1.6-5.556-0.104-0.661-0.663-0.982-1.948-0.917-2.914 0.026-0.393 1.485-0.71 2.306-1.024 1.34-0.512 2.69-0.995 4.038-1.489-0.132-0.376-0.266-0.751-0.398-1.125-0.95 0.222-1.892 0.496-2.854 0.655-4.214 0.691-7.466-2.881-6.048-6.737 0.72-1.957 1.68-3.539 4.287-1.85 0.981 0.635 2.542 0.377 3.839 0.525 0.051-0.397 0.104-0.795 0.156-1.191-0.775-0.201-1.724-0.189-2.284-0.649-1.179-0.965-2.863-2.097-3.001-3.313-0.132-1.143 1.401-2.525 2.309-3.725 0.713-0.942 1.451-1.979 2.421-2.59 1.325-0.835 3.01-1.965 4.293-1.714 0.968 0.188 1.772 2.286 2.176 3.673 0.142 0.488-1.003 1.735-1.781 2.01-1.01 0.355-2.24 0.088-3.377 0.088-0.069 0.329-0.14 0.659-0.21 0.988 1.656 0.396 3.315 0.793 5.431 1.299-1e-3 7.097 0.086 14.546-0.111 21.988zm15.937-10.932c-0.523 1.062-2.819 1.525-4.384 1.703-1.109 0.128-2.324-0.672-4.275-1.316 0.941 1.601 1.441 2.449 2.074 3.528-1.043 0.56-2.017 1.081-2.987 1.603 0.1 0.36 0.201 0.72 0.304 1.08 1.229-0.387 2.477-0.724 3.683-1.177 1.02-0.384 1.989-0.904 2.98-1.362-0.165 1.37 0.131 3.547-0.584 3.957-2.03 1.165-3.375 2.613-4.553 4.593-0.441 0.745-2.6 1.239-3.418 0.803-1.13-0.6-2.345-2.143-2.441-3.365-0.308-3.883-0.113-7.807-0.113-11.981 2.341 8e-3 4.592-0.254 5.152-4.004-1.164 0.783-1.642 1.103-2.118 1.424-1.772 1.191-2.933 0.754-3.008-1.395-0.118-3.363-0.144-6.74 0.013-10.1 0.117-2.52 2.296-4.148 4.483-3.286 1.014 0.397 2.023 1.627 2.316 2.678 0.142 0.518-1.305 1.55-2.13 2.229-0.43 0.354-1.075 0.445-1.623 0.654 0.063 0.353 0.123 0.706 0.185 1.059 1.268-0.219 2.546-0.395 3.802-0.673 1.099-0.243 2.661-1.183 3.146-0.776 0.816 0.685 1.519 2.395 1.202 3.303-0.347 0.994-1.879 1.602-2.938 2.309-0.323 0.214-0.793 0.203-1.36 1.089 0.942 0.19 2.042 0.782 2.797 0.487 1.827-0.713 3.519-0.537 3.999 1.243 0.483 1.796 0.573 4.115-0.204 5.693z" fill="#E8F3FC"/><path d="m181 196c0-4.989-3.156-8-7-8h-35c-3.845-0.011-7 3.011-7 8v67c0 4.99 3.155 8 7 8h35c3.844 0 7-3.01 7-8v-67zm-7-3c1.474 0 2 1.098 2 3v67c0 1.913-0.535 3-2 3h-35c-1.474 0-2-1.099-2-3v-67c0-1.914 0.534-3 2-3h35z" fill="#555"/><path d="m173.98 231.14c-0.388-4.525-3.001-8.895-4.886-13.229-0.403-0.928-2.035-1.25-2.707-2.147-3.31-4.431-5.044-4.806-9.659-1.808-4.909-2.992-6.298-2.701-9.824 1.994-0.309 0.41-0.742 0.812-1.206 1.006-3.224 1.354-2.866 4.198-3.564 6.957-0.652 2.584-4.072 4.617-2.886 7.765 1.284 3.402 3.241 6.503 3.985 10.198 0.238 1.188 2.545 1.828 3.548 3.021 4.011 4.776 5.095 5.073 10.089 2.17 2.264 1.906 4.846 2.799 7.383 0.833 2.156-1.672 4.98-3.528 5.647-5.841 1.113-3.854 4.385-7.344 4.08-10.919zm-18.609 13.227c-0.022 0.917-1.465 2.426-2.391 2.542-1.32 0.164-2.771-0.705-4.339-1.184 1.942-2.064 3.157-3.357 4.372-4.646-0.293-0.275-0.584-0.552-0.876-0.827-0.493 0.441-0.96 0.917-1.485 1.314-1.873 1.418-3.86 1.6-5.556-0.104-0.661-0.663-0.982-1.948-0.917-2.914 0.026-0.393 1.485-0.71 2.306-1.024 1.34-0.512 2.69-0.995 4.038-1.489-0.132-0.376-0.266-0.751-0.398-1.125-0.95 0.222-1.892 0.496-2.854 0.655-4.214 0.691-7.466-2.881-6.048-6.737 0.72-1.957 1.68-3.539 4.287-1.85 0.981 0.635 2.542 0.377 3.839 0.525 0.051-0.397 0.104-0.795 0.156-1.191-0.775-0.201-1.724-0.189-2.284-0.649-1.179-0.965-2.863-2.097-3.001-3.313-0.132-1.143 1.401-2.525 2.309-3.725 0.713-0.942 1.451-1.979 2.421-2.59 1.325-0.835 3.01-1.965 4.293-1.714 0.968 0.188 1.772 2.286 2.176 3.673 0.142 0.488-1.003 1.735-1.781 2.01-1.01 0.355-2.24 0.088-3.377 0.088-0.069 0.329-0.14 0.659-0.21 0.988 1.656 0.396 3.315 0.793 5.431 1.299-1e-3 7.097 0.086 14.546-0.111 21.988zm15.937-10.932c-0.523 1.062-2.819 1.525-4.384 1.703-1.109 0.128-2.324-0.672-4.275-1.316 0.941 1.601 1.441 2.449 2.074 3.528-1.043 0.56-2.017 1.081-2.987 1.603 0.1 0.36 0.201 0.72 0.304 1.08 1.229-0.387 2.477-0.724 3.683-1.177 1.02-0.384 1.989-0.904 2.98-1.362-0.165 1.37 0.131 3.547-0.584 3.957-2.03 1.165-3.375 2.613-4.553 4.593-0.441 0.745-2.6 1.239-3.418 0.803-1.13-0.6-2.345-2.143-2.441-3.365-0.308-3.883-0.113-7.807-0.113-11.981 2.341 8e-3 4.592-0.254 5.152-4.004-1.164 0.783-1.642 1.103-2.118 1.424-1.772 1.191-2.933 0.754-3.008-1.395-0.118-3.363-0.144-6.74 0.013-10.1 0.117-2.52 2.296-4.148 4.483-3.286 1.014 0.397 2.023 1.627 2.316 2.678 0.142 0.518-1.305 1.55-2.13 2.229-0.43 0.354-1.075 0.445-1.623 0.654 0.063 0.353 0.123 0.706 0.185 1.059 1.268-0.219 2.546-0.395 3.802-0.673 1.099-0.243 2.661-1.183 3.146-0.776 0.816 0.685 1.519 2.395 1.202 3.303-0.347 0.994-1.879 1.602-2.938 2.309-0.323 0.214-0.793 0.203-1.36 1.089 0.942 0.19 2.042 0.782 2.797 0.487 1.827-0.713 3.519-0.537 3.999 1.243 0.483 1.796 0.573 4.115-0.204 5.693zm-22.858-2.805c1.014 0 2.293-0.383 2.976 0.092 0.929 0.648 1.403 1.949 2.074 2.969-0.234 0.173-0.47 0.344-0.704 0.516-1.378-0.898-2.757-1.799-4.136-2.698-0.069-0.294-0.139-0.588-0.21-0.879z" clip-rule="evenodd" fill-rule="evenodd"/><path d="m99 134h-11v-3h11v3z" fill="#555"/><path d="m105 34h-23v-3h23v3z" fill="#555"/><path d="m142 101v-29h3v29h-3z" fill="#555"/><g fill="none" stroke="#555" stroke-linejoin="round" stroke-width="4"><line x1="157" x2="157" y1="188" y2="186"/><line x1="157" x2="157" y1="184" y2="157" stroke-dasharray="4,2"/><line x1="157" x2="157" y1="156" y2="154"/></g><line x1="73" x2="132" y1="235.5" y2="235.5" fill="none" stroke="#555" stroke-linejoin="round" stroke-width="3"/><path d="m93.11 249.9c0.445-0.697 0.239-1.626-0.46-2.071l-19.358-12.328 19.358-12.328c0.699-0.445 0.905-1.374 0.46-2.071s-1.378-0.899-2.071-0.46l-21.344 13.594c-0.433 0.275-0.695 0.752-0.695 1.265s0.262 0.99 0.694 1.266l21.344 13.594c0.249 0.158 0.529 0.234 0.804 0.234 0.496 0 0.981-0.246 1.268-0.695z" fill="#555"/><g fill="none" stroke="#555" stroke-linejoin="round" stroke-width="4"><path d="m116 154c0 0.679 0 1.346-2e-3 2"/><path d="    M115.992,157.987C115.867,183.649,114.145,190,97,190H53c-13.49,0-16.482,3.224-16.933,12.007" stroke-dasharray="3.9726,1.9863"/><path d="m36.027 203c-0.019 0.639-0.027 1.306-0.027 2"/></g></svg>