<?xml version="1.0" encoding="UTF-8"?><!DOCTYPE svg PUBLIC "-//W3C//DTD SVG 1.1//EN" "http://www.w3.org/Graphics/SVG/1.1/DTD/svg11.dtd"><svg enable-background="new 0 0 254 155" version="1.1" viewBox="0 0 254 155" xml:space="preserve" xmlns="http://www.w3.org/2000/svg"><path d="M6,6v26h10c0-4.44,3.06-9.5,7.5-9.5S31,27.56,31,32h46V6H6z" fill="#E8F3FC"/><path d="m79 1h-75c-1.38 0-3 1.62-3 3v30c0 1.38 1.62 3 3 3h12v38c0 1.38 1.12 2.5 2.5 2.5s2.5-1.121 2.5-2.5v-44c0-1.68 0.82-3.5 2.5-3.5s2.5 1.82 2.5 3.5v28c0 1.38 1.12 2.5 2.5 2.5s2.5-1.121 2.5-2.5v-9c0-1.68 1.82-3.5 3.5-3.5s3.5 1.82 3.5 3.5v9c0 1.38 1.12 2.5 2.5 2.5s2.5-1.12 2.5-2.5v-4c0-1.68 1.319-3.5 3-3.5 1.68 0 3 1.82 3 3.5v8c0 1.38 1.121 2.5 2.5 2.5 1.381 0 2.5-1.121 2.5-2.5v-3c0-1.68 1.32-3.5 3-3.5s3 1.82 3 3.5v24h5v-24c0-4.44-2.561-8.5-7-8.5-1.16 0-3 0.5-4 1.5-0.82-3.569-3.191-6.5-7-6.5-1.181 0-3 0.5-4 1.5-0.92-3.43-4.28-6.5-8-6.5-1.08 0-3 0.5-4 1.5v-6h48c1.38 0 3-1.62 3-3v-30c0-1.39-1.62-3-3-3zm-2 31h-46c0-4.44-3.06-9.5-7.5-9.5s-7.5 5.06-7.5 9.5h-10v-26h71v26z" fill="#555"/><path d="m33.28 11.11c-1.15 0-2.07 0.93-2.07 2.07s0.93 2.07 2.07 2.07c1.15 0 2.07-0.93 2.07-2.07s-0.93-2.07-2.07-2.07z"/><circle cx="50.649" cy="13.18" r="2.07"/><path d="m50.649 17.4c-1.139 0-2.069 0.93-2.069 2.07s0.931 2.07 2.069 2.07c1.15 0 2.07-0.93 2.07-2.07 1e-3 -1.15-0.929-2.07-2.07-2.07z"/><path d="m56.681 17.4c-1.15 0-2.07 0.93-2.07 2.07s0.92 2.07 2.07 2.07c1.149 0 2.069-0.93 2.069-2.07 0-1.15-0.931-2.07-2.069-2.07z"/><path d="m50.649 23.68c-1.139 0-2.069 0.93-2.069 2.07s0.931 2.07 2.069 2.07c1.15 0 2.07-0.93 2.07-2.07s-0.929-2.07-2.07-2.07z"/><circle cx="67.851" cy="13.18" r="2.07"/><path d="m67.851 17.4c-1.141 0-2.07 0.93-2.07 2.07s0.93 2.07 2.07 2.07c1.149 0 2.069-0.93 2.069-2.07 0-1.15-0.93-2.07-2.069-2.07z"/><path d="m67.851 23.68c-1.141 0-2.07 0.93-2.07 2.07s0.93 2.07 2.07 2.07c1.149 0 2.069-0.93 2.069-2.07s-0.93-2.07-2.069-2.07z"/><path d="m33.28 17.4c-1.15 0-2.07 0.93-2.07 2.07s0.93 2.07 2.07 2.07c1.15 0 2.07-0.93 2.07-2.07 0-1.15-0.93-2.07-2.07-2.07z"/><path d="m6 106v43h77v-43h-77zm32.168 28.606c-4.088-0.994-9.168-3.733-9.168-6.606 0-2 6-7 13-7 2.413 0 4.713 0.597 6.684 1.458m-10.516 12.148m2.32 0.376m10.046-11.588c2.715 1.57 4.466 3.526 4.466 4.606 0 2-7 7-14 7-0.164 0-0.335-6e-3 -0.512-0.018m10.046-11.588m-1.85-0.936m1.85 0.936-10.046 11.589m8.196-12.525-10.516 12.148" fill="#E8F3FC"/><path d="m83 87h-77c-2.92 0-5 2.08-5 5v57c0 2.92 2.08 5 5 5h77c2.92 0 5-2.08 5-5v-57c0-2.92-2.08-5-5-5zm0 62h-77v-43h77v43zm0-46h-77v-11h77v11z" fill="#555"/><path d="m38.6 137.08 2.244-2.483c5.861 0.591 9.295-2.223 12.5-5.537 0.263-0.271 0.143-1.313-0.171-1.667-1.046-1.18-2.192-2.211-3.323-3.28l1.65-1.909s0.558 0.56 1.283 1.203c1.315 1.17 2.57 2.44 3.652 3.821 0.362 0.462 0.426 1.664 0.083 2.09-3.903 4.852-8.706 8.159-15.199 8.313-1.71 0-2.719-0.551-2.719-0.551zm-10.1 4.764 2.281 1.253 25.281-29.063-2.204-1.333-6.502 7.453s-0.176-0.162-1.455-0.519c-1.507-0.419-3.16-0.627-4.716-0.506-5.426 0.42-9.634 3.208-13.148 7.194-1.703 1.933-1.767 2.246 0.063 4.099 1.755 1.776 3.672 3.395 5.728 5.275l-5.328 6.147zm14.814-18.712c-2.237-0.488-4.089 0.094-5.528 1.792-1.403 1.654-1.722 3.587-0.74 5.566 0.546 1.103 0.031 1.855-0.743 2.287-0.457 0.254-1.422 0.115-1.869-0.226-1.65-1.257-3.18-2.672-4.722-3.998 3.366-4.813 11.087-8.634 15.69-5.79-0.476 0.709-1.449 0.509-2.088 0.369zm-0.855 2.65c-1.042 1.208-1.976 2.292-3.092 3.588-0.854-2.482 0.657-4.254 3.092-3.588z" clip-rule="evenodd" fill-rule="evenodd"/><path d="m11.48 100.41c1.56 0 2.82-1.26 2.82-2.82s-1.26-2.82-2.82-2.82-2.82 1.26-2.82 2.82 1.26 2.82 2.82 2.82z" fill="#555"/><circle cx="20" cy="97.591" r="2.82" fill="#555"/><circle cx="28.52" cy="97.591" r="2.82" fill="#555"/><path d="M110,6v48h66V6H110z M132.5,42c-6.903,0-12.5-5.597-12.5-12.5S125.597,17,132.5,17S145,22.597,145,29.5  S139.403,42,132.5,42z" fill="#E8F3FC"/><path d="m174 1h-62c-4.46 0-7 3.54-7 8v42c0 4.459 2.54 8 7 8h23c-0.471 4.359-2.02 10-5 10-0.83 0-2 0.67-2 1.5s1.17 1.5 2 1.5h26c0.83 0 2-0.669 2-1.5s-1.17-1.5-2-1.5c-2.969 0-4.521-5.641-5-10h23c4.461 0 7-3.541 7-8v-42c0.01-4.46-2.539-8-7-8zm-23 68h-16c1.93-2.93 2.73-7.201 3-10h10c0.271 2.799 1.07 7.07 3 10zm25-18c0 1.709-1.299 3-3 3h-60c-1.71 0-3-1.301-3-3v-42c0-1.71 1.3-3 3-3h60c1.711 0 3 1.3 3 3v42z" fill="#555"/><path d="m159.31 13.12c-0.619-0.55-1.57-0.48-2.119 0.14-0.551 0.62-0.48 1.57 0.139 2.12 4.23 3.71 7.17 9.121 7.17 14.621s-2.939 10.67-7.17 14.379c-0.619 0.551-0.68 1.49-0.139 2.121 0.299 0.34 0.709 0.51 1.129 0.51 0.35 0 0.701-0.121 0.99-0.371 4.88-4.28 8.189-10.279 8.189-16.64 0-6.379-3.309-12.59-8.189-16.88z"/><path d="m155.17 17.15c-0.629-0.54-1.58-0.46-2.119 0.17-0.541 0.63-0.461 1.58 0.17 2.11 3.109 2.65 5.279 6.58 5.279 10.57s-2.17 7.67-5.279 10.33c-0.631 0.54-0.711 1.479-0.17 2.11 0.301 0.35 0.721 0.529 1.141 0.529 0.34 0 0.689-0.119 0.969-0.359 3.781-3.221 6.34-7.74 6.34-12.61s-2.55-9.63-6.331-12.85z"/><path d="m151 21.17c-0.648-0.52-1.59-0.41-2.109 0.23-0.52 0.65-0.42 1.59 0.23 2.11 1.98 1.59 3.379 4.03 3.379 6.49s-1.398 4.67-3.379 6.25c-0.65 0.52-0.75 1.459-0.23 2.11 0.301 0.37 0.73 0.561 1.17 0.561 0.33 0 0.66-0.111 0.939-0.33 2.691-2.161 4.5-5.21 4.5-8.59s-1.809-6.681-4.5-8.831z"/><circle cx="132.5" cy="29.5" r="12.5" fill="none" stroke="#000" stroke-miterlimit="10" stroke-width="2"/><circle cx="132.5" cy="24" r="1.75"/><path d="m138 26-4 1h-3l-4-1c-0.34-0.05-0.351 1.95 0 2l4 1v2l-3 5c-0.16 0.39 1.84 1.39 2 1l2.5-5 2.5 5c0.16 0.39 2.16-0.61 2-1l-3-5v-2l4-1c0.341-0.05 0.34-2.05 0-2z"/><path d="m104 106v43h72v-43h-72zm65 36h-58v-28h58v28z" fill="#E8F3FC"/><path d="m178 101h-76c-1.379 0-3 1.619-3 3v47c0 1.379 1.621 3 3 3h76c1.379 0 3-1.621 3-3v-47c0-1.381-1.621-3-3-3zm-2 48h-72v-43h72v43z" fill="#555"/><path d="m110 144h60c0.41 0 1-0.59 1-1v-30c0-0.41-0.59-1-1-1h-60c-0.41 0-1 0.59-1 1v30c0.01 0.41 0.58 1 1 1zm40-12h-9v-9h9v9zm-10 0h-9v-9h9v9zm-10 0h-9v-9h9v9zm-10 0h-9v-9h9v9zm-9 1h9v9l-9 0.068v-9.068zm10 0h38v9.068h-38v-9.068zm48.06 9.068h-9.06v-9.068h9.06v9.068zm0-10.068h-18.06v-9h10v-9h8.06v18zm-9.06-10h-9v-8h9v8zm-10 0h-9v-8h9v8zm-10 0h-9v-8h9v8zm-10 0h-9v-8h9v8zm-19-8h9v8h-9v-8z"/><path d="m204 6v43h44v-43h-44zm34.361 31.592c-0.567 4.452-4.003 7.035-8.511 7.205-5.423 0.204-9.468-1.674-11.889-6.752-1.236-2.592-2.881-4.987-4.164-7.56-0.322-0.646 0.039-1.633 0.087-2.463 0.785 0.271 1.754 0.34 2.314 0.855 0.974 0.894 1.638 2.115 2.549 3.091 0.356 0.383 1.026 0.473 1.555 0.696 0.212-0.517 0.603-1.03 0.607-1.549 0.048-4.891 0.03-9.783 0.031-14.676 0-0.469-0.153-1.017 0.036-1.39 0.344-0.677 0.893-1.249 1.355-1.864 0.51 0.643 1.419 1.26 1.46 1.931 0.17 2.737 0.074 5.491 0.078 8.238 0 0.47-0.118 0.988 0.044 1.395 0.194 0.483 0.632 0.87 0.964 1.299 0.364-0.417 0.86-0.781 1.056-1.267 0.188-0.466 0.074-1.057 0.075-1.592 9e-3 -3.484-0.059-6.973 0.076-10.452 0.028-0.717 0.74-1.936 1.258-2.004 1.404-0.185 1.388 1.063 1.387 2.1-4e-3 3.484-2e-3 6.97 0 10.454 1e-3 0.469-0.129 1.011 0.06 1.39 0.265 0.529 0.771 0.938 1.173 1.399 0.325-0.495 0.742-0.956 0.944-1.496 0.154-0.412 0.037-0.927 0.038-1.396 1e-3 -2.882-2e-3 -5.764 3e-3 -8.646 1e-3 -1.015-0.108-2.179 1.37-2.192 1.382-0.013 1.301 1.126 1.316 2.044 0.052 3.148 0.053 6.299 0.084 9.447 6e-3 0.669-0.051 1.368 0.127 1.995 0.119 0.419 0.601 0.734 0.92 1.096 0.347-0.399 0.968-0.781 0.992-1.199 0.112-1.938 0.034-3.885 0.08-5.827 0.019-0.796 0.057-1.631 0.317-2.365 0.157-0.443 0.771-1.017 1.161-1.004 0.421 0.014 0.977 0.572 1.188 1.026 0.239 0.513 0.208 1.173 0.213 1.77 0.019 2.613 8e-3 5.228 8e-3 7.841 0.057 2e-3 0.113 4e-3 0.17 7e-3 -0.157 3.474-0.093 6.976-0.532 10.415z" fill="#E8F3FC"/><path d="m250 1h-48c-0.908 0-3 1.593-3 3v47c0 1.405 2.092 3 3 3h48c0.908 0 3-1.595 3-3v-47c0-1.407-2.092-3-3-3zm-2 48h-44v-43h44v43z" fill="#555"/><path d="m240.88 18.167c4e-3 -0.459-0.143-0.924-0.249-1.379-0.364-1.558-1.359-2.402-2.946-2.551-0.579-0.054-1.161-0.088-1.542-0.117-0.496-1.124-0.652-2.474-1.345-2.859-1.98-1.103-4.154-1.884-6.306-2.639-0.697-0.244-1.824-0.335-2.299 0.056-1.723 1.422-3.632 2.203-5.715 2.951-0.926 0.332-1.579 2.532-1.652 3.923-0.215 4.06-0.076 8.139-0.076 12.21-0.158 0.06-0.316 0.119-0.475 0.179-0.108-0.169-0.195-0.358-0.328-0.504-1.846-2.021-3.706-2.405-5.444-1.134-1.647 1.205-1.86 3.052-0.563 5.368 1.535 2.743 3.182 5.427 4.648 8.206 2.24 4.245 5.627 6.481 10.45 7.069 7.527 0.916 13.019-2.855 13.578-10.318 0.459-6.126 0.217-12.305 0.264-18.461zm-2.515 19.425c-0.567 4.452-4.003 7.035-8.511 7.205-5.423 0.204-9.468-1.674-11.889-6.752-1.236-2.592-2.881-4.987-4.164-7.56-0.322-0.646 0.039-1.633 0.087-2.463 0.785 0.271 1.754 0.34 2.314 0.855 0.974 0.894 1.638 2.115 2.549 3.091 0.356 0.383 1.026 0.473 1.555 0.696 0.212-0.517 0.603-1.03 0.607-1.549 0.048-4.891 0.03-9.783 0.031-14.676 0-0.469-0.153-1.017 0.036-1.39 0.344-0.677 0.893-1.249 1.355-1.864 0.51 0.643 1.419 1.26 1.46 1.931 0.17 2.737 0.074 5.491 0.078 8.238 0 0.47-0.118 0.988 0.044 1.395 0.194 0.483 0.632 0.87 0.964 1.299 0.364-0.417 0.86-0.781 1.056-1.267 0.188-0.466 0.074-1.057 0.075-1.592 9e-3 -3.484-0.059-6.973 0.076-10.452 0.028-0.717 0.74-1.936 1.258-2.004 1.404-0.185 1.388 1.063 1.387 2.1-4e-3 3.484-2e-3 6.97 0 10.454 1e-3 0.469-0.129 1.011 0.06 1.39 0.265 0.529 0.771 0.938 1.173 1.399 0.325-0.495 0.742-0.956 0.944-1.496 0.154-0.412 0.037-0.927 0.038-1.396 1e-3 -2.882-2e-3 -5.764 3e-3 -8.646 1e-3 -1.015-0.108-2.179 1.37-2.192 1.382-0.013 1.301 1.126 1.316 2.044 0.052 3.148 0.053 6.299 0.084 9.447 6e-3 0.669-0.051 1.368 0.127 1.995 0.119 0.419 0.601 0.734 0.92 1.096 0.347-0.399 0.968-0.781 0.992-1.199 0.112-1.938 0.034-3.885 0.08-5.827 0.019-0.796 0.057-1.631 0.317-2.365 0.157-0.443 0.771-1.017 1.161-1.004 0.421 0.014 0.977 0.572 1.188 1.026 0.239 0.513 0.208 1.173 0.213 1.77 0.019 2.613 8e-3 5.228 8e-3 7.841 0.057 2e-3 0.113 4e-3 0.17 7e-3 -0.157 3.474-0.093 6.976-0.532 10.415z" clip-rule="evenodd" fill-rule="evenodd"/><path d="m209 76v73h39v-73h-39zm18.371 51.362c-0.022 0.917-1.465 2.426-2.391 2.542-1.32 0.164-2.771-0.705-4.339-1.184 1.942-2.064 3.157-3.357 4.372-4.646-0.293-0.275-0.584-0.552-0.876-0.827-0.493 0.441-0.96 0.917-1.485 1.314-1.873 1.418-3.86 1.6-5.556-0.104-0.661-0.663-0.982-1.948-0.917-2.914 0.026-0.393 1.485-0.71 2.306-1.024 1.34-0.512 2.69-0.995 4.038-1.489-0.132-0.376-0.266-0.751-0.398-1.125-0.95 0.221-1.892 0.496-2.854 0.655-4.214 0.691-7.466-2.881-6.048-6.737 0.72-1.958 1.68-3.54 4.287-1.851 0.981 0.635 2.542 0.377 3.839 0.526 0.051-0.398 0.104-0.795 0.156-1.192-0.775-0.201-1.724-0.189-2.284-0.649-1.179-0.965-2.863-2.096-3.001-3.314-0.132-1.143 1.401-2.525 2.309-3.724 0.713-0.943 1.451-1.98 2.421-2.59 1.325-0.835 3.01-1.965 4.293-1.714 0.968 0.189 1.772 2.287 2.176 3.672 0.142 0.488-1.003 1.736-1.781 2.01-1.01 0.356-2.24 0.087-3.377 0.087-0.069 0.33-0.14 0.66-0.21 0.989 1.656 0.397 3.315 0.793 5.431 1.299-1e-3 7.098 0.086 14.548-0.111 21.99zm15.937-10.932c-0.523 1.062-2.819 1.526-4.384 1.703-1.109 0.128-2.324-0.671-4.275-1.316 0.941 1.601 1.441 2.449 2.074 3.528-1.043 0.56-2.017 1.081-2.987 1.603 0.1 0.36 0.201 0.72 0.304 1.08 1.229-0.387 2.477-0.724 3.683-1.177 1.02-0.384 1.989-0.904 2.98-1.362-0.165 1.37 0.131 3.547-0.584 3.957-2.03 1.165-3.375 2.613-4.553 4.593-0.441 0.745-2.6 1.239-3.418 0.803-1.13-0.6-2.345-2.143-2.441-3.365-0.308-3.883-0.113-7.807-0.113-11.981 2.341 8e-3 4.592-0.253 5.152-4.004-1.164 0.783-1.642 1.103-2.118 1.423-1.772 1.192-2.933 0.754-3.008-1.395-0.118-3.363-0.144-6.739 0.013-10.099 0.117-2.52 2.296-4.148 4.483-3.286 1.014 0.398 2.023 1.627 2.316 2.678 0.142 0.518-1.305 1.55-2.13 2.229-0.43 0.354-1.075 0.446-1.623 0.655 0.063 0.352 0.123 0.706 0.185 1.058 1.268-0.219 2.546-0.394 3.802-0.672 1.099-0.243 2.661-1.183 3.146-0.776 0.816 0.685 1.519 2.395 1.202 3.302-0.347 0.995-1.879 1.602-2.938 2.309-0.323 0.214-0.793 0.204-1.36 1.089 0.942 0.19 2.042 0.782 2.797 0.487 1.827-0.713 3.519-0.538 3.999 1.243 0.483 1.796 0.573 4.115-0.204 5.693z" fill="#E8F3FC"/><path d="m253 79c0-4.989-3.156-8-7-8h-35c-3.845-0.011-7 3.011-7 8v67c0 4.99 3.155 8 7 8h35c3.844 0 7-3.01 7-8v-67zm-7-3c1.474 0 2 1.097 2 3v67c0 1.913-0.535 3-2 3h-35c-1.474 0-2-1.099-2-3v-67c0-1.914 0.534-3 2-3h35z" fill="#555"/><path d="m245.98 114.14c-0.388-4.525-3.001-8.894-4.886-13.228-0.403-0.928-2.035-1.25-2.707-2.148-3.31-4.431-5.044-4.806-9.659-1.807-4.909-2.993-6.298-2.702-9.824 1.994-0.309 0.411-0.742 0.812-1.206 1.006-3.224 1.353-2.866 4.198-3.564 6.957-0.652 2.583-4.072 4.617-2.886 7.764 1.284 3.402 3.241 6.503 3.985 10.198 0.238 1.188 2.545 1.828 3.548 3.021 4.011 4.776 5.095 5.073 10.089 2.17 2.264 1.906 4.846 2.799 7.383 0.833 2.156-1.672 4.98-3.528 5.647-5.841 1.113-3.854 4.385-7.344 4.08-10.919zm-18.609 13.227c-0.022 0.917-1.465 2.426-2.391 2.542-1.32 0.164-2.771-0.705-4.339-1.184 1.942-2.064 3.157-3.357 4.372-4.646-0.293-0.275-0.584-0.552-0.876-0.827-0.493 0.441-0.96 0.917-1.485 1.314-1.873 1.418-3.86 1.6-5.556-0.104-0.661-0.663-0.982-1.948-0.917-2.914 0.026-0.393 1.485-0.71 2.306-1.024 1.34-0.512 2.69-0.995 4.038-1.489-0.132-0.376-0.266-0.751-0.398-1.125-0.95 0.221-1.892 0.496-2.854 0.655-4.214 0.691-7.466-2.881-6.048-6.737 0.72-1.958 1.68-3.54 4.287-1.851 0.981 0.635 2.542 0.377 3.839 0.526 0.051-0.398 0.104-0.795 0.156-1.192-0.775-0.201-1.724-0.189-2.284-0.649-1.179-0.965-2.863-2.096-3.001-3.314-0.132-1.143 1.401-2.525 2.309-3.724 0.713-0.943 1.451-1.98 2.421-2.59 1.325-0.835 3.01-1.965 4.293-1.714 0.968 0.189 1.772 2.287 2.176 3.672 0.142 0.488-1.003 1.736-1.781 2.01-1.01 0.356-2.24 0.087-3.377 0.087-0.069 0.33-0.14 0.66-0.21 0.989 1.656 0.397 3.315 0.793 5.431 1.299-1e-3 7.098 0.086 14.548-0.111 21.99zm15.937-10.932c-0.523 1.062-2.819 1.526-4.384 1.703-1.109 0.128-2.324-0.671-4.275-1.316 0.941 1.601 1.441 2.449 2.074 3.528-1.043 0.56-2.017 1.081-2.987 1.603 0.1 0.36 0.201 0.72 0.304 1.08 1.229-0.387 2.477-0.724 3.683-1.177 1.02-0.384 1.989-0.904 2.98-1.362-0.165 1.37 0.131 3.547-0.584 3.957-2.03 1.165-3.375 2.613-4.553 4.593-0.441 0.745-2.6 1.239-3.418 0.803-1.13-0.6-2.345-2.143-2.441-3.365-0.308-3.883-0.113-7.807-0.113-11.981 2.341 8e-3 4.592-0.253 5.152-4.004-1.164 0.783-1.642 1.103-2.118 1.423-1.772 1.192-2.933 0.754-3.008-1.395-0.118-3.363-0.144-6.739 0.013-10.099 0.117-2.52 2.296-4.148 4.483-3.286 1.014 0.398 2.023 1.627 2.316 2.678 0.142 0.518-1.305 1.55-2.13 2.229-0.43 0.354-1.075 0.446-1.623 0.655 0.063 0.352 0.123 0.706 0.185 1.058 1.268-0.219 2.546-0.394 3.802-0.672 1.099-0.243 2.661-1.183 3.146-0.776 0.816 0.685 1.519 2.395 1.202 3.302-0.347 0.995-1.879 1.602-2.938 2.309-0.323 0.214-0.793 0.204-1.36 1.089 0.942 0.19 2.042 0.782 2.797 0.487 1.827-0.713 3.519-0.538 3.999 1.243 0.483 1.796 0.573 4.115-0.204 5.693z" clip-rule="evenodd" fill-rule="evenodd"/><path d="m220.66 114.5c1.379 0.9 2.758 1.799 4.136 2.699 0.234-0.172 0.47-0.343 0.704-0.516-0.671-1.02-1.146-2.321-2.074-2.969-0.683-0.476-1.962-0.093-2.976-0.093 0.071 0.293 0.141 0.586 0.21 0.879z" clip-rule="evenodd" fill-rule="evenodd"/><g fill="none" stroke="#555" stroke-linejoin="round" stroke-width="3"><line x1="181" x2="182" y1="122.5" y2="122.5"/><line x1="184" x2="188" y1="122.5" y2="122.5" stroke-dasharray="3,2"/><path d="m189 122.5h1.5v-1.496"/><path d="m190.5 119v-46c0-7 3.5-10.5 10.5-10.5h16" stroke-dasharray="3.0012,2.0008"/><path d="m218 62.5h1.496v-1.5"/><line x1="219.5" x2="219.5" y1="59" y2="56" stroke-dasharray="2,2"/><line x1="219.5" x2="219.5" y1="56" y2="54"/></g><rect x="82" y="31" width="23" height="3" fill="#555"/><rect x="88" y="121" width="11" height="3" fill="#555"/><rect x="142" y="72" width="3" height="29" fill="#555"/><rect x="234" y="54" width="3" height="17" fill="#555"/></svg>