<?xml version="1.0" encoding="UTF-8"?><!DOCTYPE svg  PUBLIC "-//W3C//DTD SVG 1.1//EN" "http://www.w3.org/Graphics/SVG/1.1/DTD/svg11.dtd"><svg enable-background="new 0 0 254 155" version="1.1" viewBox="0 0 254 155" xml:space="preserve" xmlns="http://www.w3.org/2000/svg"><path d="m79 1h-75c-1.38 0-3 1.62-3 3v30c0 1.38 1.62 3 3 3h12v36c0 1.38 1.12 2.5 2.5 2.5s2.5-1.121 2.5-2.5v-42c0-1.68 0.82-3.5 2.5-3.5s2.5 1.82 2.5 3.5v28c0 1.38 1.12 2.5 2.5 2.5s2.5-1.121 2.5-2.5v-9c0-1.68 1.82-3.5 3.5-3.5s3.5 1.82 3.5 3.5v9c0 1.38 1.12 2.5 2.5 2.5s2.5-1.12 2.5-2.5v-4c0-1.68 1.319-3.5 3-3.5 1.68 0 3 1.82 3 3.5v8c0 1.38 1.121 2.5 2.5 2.5 1.381 0 2.5-1.121 2.5-2.5v-3c0-1.68 1.32-3.5 3-3.5s3 1.82 3 3.5v19h5v-19c0-4.44-2.561-8.5-7-8.5-1.16 0-3 0.5-4 1.5-0.82-3.569-3.191-6.5-7-6.5-1.181 0-3 0.5-4 1.5-0.92-3.43-4.28-6.5-8-6.5-1.08 0-3 0.5-4 1.5v-6h48c1.38 0 3-1.62 3-3v-30c0-1.39-1.62-3-3-3zm-2 31h-46c0-4.44-3.06-9.5-7.5-9.5s-7.5 5.06-7.5 9.5h-10v-26h71v26z" fill="#CCC"/><path d="m33.28 11.11c-1.15 0-2.07 0.93-2.07 2.07s0.93 2.07 2.07 2.07c1.15 0 2.07-0.93 2.07-2.07s-0.93-2.07-2.07-2.07z" fill="#CCC"/><circle cx="50.649" cy="13.18" r="2.07" fill="#CCC"/><path d="m50.649 17.4c-1.139 0-2.069 0.93-2.069 2.07s0.931 2.07 2.069 2.07c1.15 0 2.07-0.93 2.07-2.07 1e-3 -1.15-0.929-2.07-2.07-2.07z" fill="#CCC"/><path d="m56.681 17.4c-1.15 0-2.07 0.93-2.07 2.07s0.92 2.07 2.07 2.07c1.149 0 2.069-0.93 2.069-2.07 0-1.15-0.931-2.07-2.069-2.07z" fill="#CCC"/><path d="m50.649 23.68c-1.139 0-2.069 0.93-2.069 2.07s0.931 2.07 2.069 2.07c1.15 0 2.07-0.93 2.07-2.07s-0.929-2.07-2.07-2.07z" fill="#CCC"/><circle cx="67.851" cy="13.18" r="2.07" fill="#CCC"/><path d="m67.851 17.4c-1.141 0-2.07 0.93-2.07 2.07s0.93 2.07 2.07 2.07c1.149 0 2.069-0.93 2.069-2.07 0-1.15-0.93-2.07-2.069-2.07z" fill="#CCC"/><path d="m67.851 23.68c-1.141 0-2.07 0.93-2.07 2.07s0.93 2.07 2.07 2.07c1.149 0 2.069-0.93 2.069-2.07s-0.93-2.07-2.069-2.07z" fill="#CCC"/><path d="m33.28 17.4c-1.15 0-2.07 0.93-2.07 2.07s0.93 2.07 2.07 2.07c1.15 0 2.07-0.93 2.07-2.07 0-1.15-0.93-2.07-2.07-2.07z" fill="#CCC"/><path d="m73 87h-67c-2.92 0-5 2.08-5 5v57c0 2.92 2.08 5 5 5h67c2.92 0 5-2.08 5-5v-57c0-2.92-2.08-5-5-5zm0 62h-67v-43h67v43zm0-46h-67v-11h67v11z" fill="#CCC"/><path d="m36.857 137.08 2.244-2.483c5.861 0.591 9.295-2.223 12.5-5.537 0.263-0.271 0.143-1.313-0.171-1.667-1.046-1.18-2.192-2.211-3.323-3.28l1.65-1.909s0.558 0.56 1.283 1.203c1.315 1.17 2.57 2.44 3.652 3.821 0.362 0.462 0.426 1.664 0.083 2.09-3.903 4.852-8.706 8.159-15.199 8.313-1.71 0-2.719-0.551-2.719-0.551zm-10.1 4.764 2.281 1.253 25.281-29.063-2.204-1.333-6.502 7.453s-0.176-0.162-1.455-0.519c-1.507-0.419-3.16-0.627-4.716-0.506-5.426 0.42-9.634 3.208-13.148 7.194-1.703 1.933-1.767 2.246 0.063 4.099 1.755 1.776 3.672 3.395 5.728 5.275l-5.328 6.147zm14.814-18.712c-2.237-0.488-4.089 0.094-5.528 1.792-1.403 1.654-1.722 3.587-0.74 5.566 0.546 1.103 0.031 1.855-0.743 2.287-0.457 0.254-1.422 0.115-1.869-0.226-1.65-1.257-3.18-2.672-4.722-3.998 3.366-4.813 11.087-8.634 15.69-5.79-0.476 0.709-1.449 0.509-2.088 0.369zm-0.855 2.65c-1.042 1.208-1.976 2.292-3.092 3.588-0.854-2.482 0.657-4.254 3.092-3.588z" clip-rule="evenodd" fill="#CCC" fill-rule="evenodd"/><path d="m11.48 100.41c1.56 0 2.82-1.26 2.82-2.82s-1.26-2.82-2.82-2.82-2.82 1.26-2.82 2.82 1.26 2.82 2.82 2.82z" fill="#CCC"/><circle cx="20" cy="97.591" r="2.82" fill="#CCC"/><circle cx="28.52" cy="97.591" r="2.82" fill="#CCC"/><path d="m174 59c4.461 0 7-3.541 7-8v-42c0.01-4.46-2.539-8-7-8h-62c-4.46 0-7 3.54-7 8v42c0 4.459 2.54 8 7 8h62zm2-8c0 1.709-1.299 3-3 3h-60c-1.71 0-3-1.301-3-3v-42c0-1.71 1.3-3 3-3h60c1.711 0 3 1.3 3 3v42z" fill="#CCC"/><path d="m159.31 13.12c-0.619-0.55-1.57-0.48-2.119 0.14-0.551 0.62-0.48 1.57 0.139 2.12 4.23 3.71 7.17 9.121 7.17 14.621s-2.939 10.67-7.17 14.379c-0.619 0.551-0.68 1.49-0.139 2.121 0.299 0.34 0.709 0.51 1.129 0.51 0.35 0 0.701-0.121 0.99-0.371 4.88-4.28 8.189-10.279 8.189-16.64 0-6.379-3.309-12.59-8.189-16.88z" fill="#CCC"/><path d="m155.17 17.15c-0.629-0.54-1.58-0.46-2.119 0.17-0.541 0.63-0.461 1.58 0.17 2.11 3.109 2.65 5.279 6.58 5.279 10.57s-2.17 7.67-5.279 10.33c-0.631 0.54-0.711 1.479-0.17 2.11 0.301 0.35 0.721 0.529 1.141 0.529 0.34 0 0.689-0.119 0.969-0.359 3.781-3.221 6.34-7.74 6.34-12.61s-2.55-9.63-6.331-12.85z" fill="#CCC"/><path d="m151 21.17c-0.648-0.52-1.59-0.41-2.109 0.23-0.52 0.65-0.42 1.59 0.23 2.11 1.98 1.59 3.379 4.03 3.379 6.49s-1.398 4.67-3.379 6.25c-0.65 0.52-0.75 1.459-0.23 2.11 0.301 0.37 0.73 0.561 1.17 0.561 0.33 0 0.66-0.111 0.939-0.33 2.691-2.161 4.5-5.21 4.5-8.59s-1.809-6.681-4.5-8.831z" fill="#CCC"/><circle cx="132.5" cy="29.5" r="12.5" fill="none" stroke="#CCC" stroke-miterlimit="10" stroke-width="2"/><path d="m178 101h-76c-1.379 0-3 1.619-3 3v47c0 1.379 1.621 3 3 3h76c1.379 0 3-1.621 3-3v-47c0-1.381-1.621-3-3-3zm-2 48h-72v-43h72v43z" fill="#CCC"/><path d="m110 144h60c0.41 0 1-0.59 1-1v-30c0-0.41-0.59-1-1-1h-60c-0.41 0-1 0.59-1 1v30c0.01 0.41 0.58 1 1 1zm40-12h-9v-9h9v9zm-10 0h-9v-9h9v9zm-10 0h-9v-9h9v9zm-10 0h-9v-9h9v9zm-9 1h9v9l-9 0.068v-9.068zm10 0h38v9.068h-38v-9.068zm48.06 9.068h-9.06v-9.068h9.06v9.068zm0-10.068h-18.06v-9h10v-9h8.06v18zm-9.06-10h-9v-8h9v8zm-10 0h-9v-8h9v8zm-10 0h-9v-8h9v8zm-10 0h-9v-8h9v8zm-19-8h9v8h-9v-8z" fill="#CCC"/><path d="m250 1h-48c-0.908 0-3 1.593-3 3v47c0 1.405 2.092 3 3 3h48c0.908 0 3-1.595 3-3v-47c0-1.407-2.092-3-3-3zm-2 48h-44v-43h44v43z" fill="#CCC"/><path d="m237.54 20.315c3e-3 -0.356-0.11-0.717-0.193-1.07-0.282-1.208-1.055-1.864-2.286-1.979-0.449-0.042-0.9-0.068-1.195-0.091-0.386-0.872-0.507-1.919-1.044-2.218-1.536-0.855-3.223-1.461-4.892-2.047-0.541-0.189-1.415-0.26-1.783 0.043-1.337 1.103-2.818 1.709-4.434 2.29-0.719 0.257-1.226 1.964-1.282 3.043-0.167 3.149-0.059 6.314-0.059 9.473-0.123 0.046-0.246 0.092-0.368 0.139-0.085-0.131-0.152-0.278-0.255-0.391-1.432-1.568-2.875-1.866-4.224-0.879-1.278 0.935-1.443 2.368-0.438 4.165 1.191 2.128 2.469 4.21 3.606 6.366 1.738 3.293 4.365 5.028 8.107 5.484 5.84 0.711 10.1-2.215 10.533-8.005 0.358-4.754 0.171-9.547 0.207-14.323zm-1.951 15.069c-0.44 3.454-3.105 5.458-6.603 5.59-4.207 0.158-7.345-1.298-9.223-5.238-0.96-2.011-2.235-3.869-3.23-5.865-0.25-0.501 0.03-1.267 0.067-1.911 0.608 0.21 1.36 0.264 1.795 0.664 0.756 0.693 1.271 1.641 1.978 2.397 0.276 0.297 0.796 0.367 1.206 0.541 0.165-0.401 0.468-0.799 0.472-1.202 0.037-3.794 0.023-7.59 0.024-11.386 0-0.363-0.119-0.789 0.027-1.078 0.267-0.525 0.692-0.969 1.052-1.446 0.396 0.499 1.101 0.978 1.133 1.498 0.132 2.124 0.058 4.26 0.061 6.391 0 0.365-0.092 0.767 0.034 1.082 0.15 0.375 0.49 0.675 0.748 1.008 0.282-0.324 0.667-0.606 0.818-0.983 0.146-0.361 0.058-0.82 0.059-1.235 7e-3 -2.703-0.046-5.409 0.059-8.109 0.022-0.556 0.575-1.501 0.977-1.555 1.089-0.143 1.076 0.825 1.075 1.629-3e-3 2.703-1e-3 5.407 0 8.11 1e-3 0.364-0.1 0.784 0.047 1.078 0.205 0.411 0.598 0.728 0.909 1.086 0.253-0.384 0.576-0.742 0.733-1.161 0.119-0.319 0.028-0.719 0.029-1.083 1e-3 -2.236-2e-3 -4.471 2e-3 -6.707 1e-3 -0.787-0.084-1.69 1.063-1.701 1.071-0.01 1.009 0.874 1.021 1.585 0.04 2.442 0.041 4.887 0.065 7.329 5e-3 0.519-0.039 1.062 0.099 1.548 0.093 0.325 0.466 0.57 0.714 0.85 0.269-0.31 0.751-0.606 0.77-0.93 0.087-1.503 0.026-3.014 0.063-4.521 0.014-0.617 0.044-1.265 0.246-1.835 0.122-0.344 0.598-0.789 0.9-0.779 0.327 0.011 0.758 0.444 0.922 0.796 0.186 0.398 0.162 0.91 0.165 1.373 0.015 2.027 7e-3 4.055 7e-3 6.083 0.044 1e-3 0.088 3e-3 0.132 5e-3 -0.125 2.698-0.075 5.415-0.416 8.082z" clip-rule="evenodd" fill="#CCC" fill-rule="evenodd"/><path d="m253 79c0-4.989-3.156-8-7-8h-35c-3.845-0.011-7 3.011-7 8v67c0 4.99 3.155 8 7 8h35c3.844 0 7-3.01 7-8v-67zm-7-3c1.474 0 2 1.097 2 3v67c0 1.913-0.535 3-2 3h-35c-1.474 0-2-1.099-2-3v-67c0-1.914 0.534-3 2-3h35z" fill="#CCC"/><path d="m243.48 114.04c-0.333-3.878-2.572-7.623-4.188-11.338-0.346-0.796-1.744-1.072-2.32-1.841-2.836-3.798-4.323-4.119-8.278-1.549-4.208-2.565-5.398-2.316-8.421 1.709-0.265 0.352-0.637 0.695-1.034 0.862-2.763 1.16-2.456 3.598-3.055 5.963-0.56 2.214-3.49 3.957-2.474 6.655 1.101 2.916 2.778 5.574 3.416 8.742 0.204 1.019 2.182 1.566 3.041 2.589 3.438 4.094 4.367 4.348 8.647 1.859 1.94 1.634 4.153 2.399 6.328 0.714 1.848-1.433 4.269-3.024 4.841-5.006 0.953-3.302 3.758-6.295 3.497-9.359zm-15.951 11.338c-0.02 0.786-1.256 2.079-2.049 2.179-1.132 0.141-2.376-0.604-3.719-1.015 1.665-1.77 2.706-2.878 3.747-3.982-0.251-0.236-0.5-0.473-0.751-0.709-0.423 0.379-0.822 0.786-1.272 1.127-1.605 1.215-3.31 1.371-4.763-0.09-0.566-0.568-0.842-1.67-0.786-2.498 0.023-0.336 1.273-0.608 1.977-0.878 1.148-0.438 2.307-0.853 3.461-1.276-0.112-0.322-0.228-0.644-0.341-0.964-0.814 0.19-1.622 0.425-2.446 0.562-3.611 0.593-6.399-2.469-5.184-5.774 0.617-1.678 1.439-3.034 3.675-1.586 0.841 0.544 2.179 0.324 3.29 0.451 0.044-0.341 0.089-0.681 0.134-1.021-0.664-0.172-1.478-0.162-1.958-0.557-1.01-0.827-2.454-1.797-2.572-2.84-0.112-0.979 1.201-2.165 1.979-3.192 0.61-0.808 1.243-1.697 2.075-2.22 1.136-0.716 2.579-1.685 3.679-1.469 0.83 0.162 1.52 1.96 1.865 3.147 0.121 0.418-0.859 1.488-1.526 1.723-0.865 0.305-1.92 0.075-2.895 0.075-0.06 0.283-0.12 0.565-0.18 0.848 1.419 0.34 2.841 0.68 4.654 1.113 1e-3 6.081 0.075 12.467-0.094 18.846zm13.66-9.371c-0.449 0.91-2.417 1.308-3.758 1.46-0.951 0.109-1.992-0.576-3.664-1.128 0.807 1.372 1.235 2.1 1.777 3.024-0.894 0.479-1.729 0.927-2.561 1.373 0.086 0.31 0.173 0.617 0.261 0.926 1.053-0.331 2.122-0.62 3.156-1.009 0.874-0.328 1.705-0.774 2.555-1.167-0.142 1.174 0.112 3.04-0.501 3.392-1.74 0.998-2.893 2.239-3.902 3.937-0.378 0.639-2.228 1.063-2.93 0.688-0.968-0.514-2.01-1.836-2.092-2.884-0.264-3.328-0.098-6.691-0.098-10.27 2.007 7e-3 3.936-0.217 4.416-3.432-0.997 0.671-1.406 0.945-1.815 1.22-1.519 1.022-2.514 0.647-2.578-1.195-0.101-2.882-0.123-5.776 0.011-8.656 0.101-2.16 1.969-3.555 3.844-2.816 0.868 0.341 1.734 1.395 1.985 2.295 0.121 0.444-1.118 1.329-1.826 1.911-0.368 0.303-0.921 0.382-1.391 0.562 0.054 0.302 0.105 0.605 0.158 0.907 1.086-0.188 2.182-0.338 3.259-0.576 0.941-0.208 2.28-1.014 2.696-0.666 0.7 0.586 1.302 2.052 1.03 2.831-0.297 0.853-1.61 1.373-2.518 1.979-0.277 0.183-0.68 0.174-1.166 0.933 0.808 0.163 1.75 0.67 2.397 0.418 1.566-0.611 3.016-0.461 3.428 1.065 0.416 1.538 0.493 3.526-0.173 4.878z" clip-rule="evenodd" fill="#CCC" fill-rule="evenodd"/><g fill="none" stroke="#CCC" stroke-linejoin="round" stroke-width="6"><line x1="181" x2="182" y1="123" y2="123"/><line x1="184" x2="188" y1="123" y2="123" stroke-dasharray="3,2"/><path d="m189 122.5h1.5v-1.496"/><path d="m190 119v-46c0-7 4-10 11-10h16" stroke-dasharray="3.0012,2.0008"/><path d="m218 62.5h1.496v-1.5"/><line x1="219" x2="219" y1="59" y2="56" stroke-dasharray="2,2"/><line x1="219" x2="219" y1="56" y2="54"/></g><rect x="82" y="31" width="23" height="3" fill="#CCC"/><rect x="78" y="121" width="21" height="3" fill="#CCC"/><rect x="234" y="54" width="3" height="17" fill="#CCC"/><circle cx="127.5" cy="77.494" r="41.663" fill="#fff"/><path d="m127.5 32.5c-24.813 0-45 20.187-45 45s20.187 45 45 45c24.816 0 45-20.188 45-45 0-24.813-20.184-45-45-45zm0 85.188c-22.159 0-40.188-18.028-40.188-40.188s18.028-40.188 40.188-40.188c22.162 0 40.188 18.028 40.188 40.188 0 22.159-18.026 40.188-40.188 40.188z" fill="#1979AA"/><path d="m127.5 63.412c4.354 0 7.914-3.552 7.914-7.911 0-4.365-3.56-7.913-7.914-7.913-4.361 0-7.914 3.548-7.914 7.913 0 4.359 3.553 7.911 7.914 7.911zm0-12.928c2.77 0 5.029 2.252 5.029 5.025s-2.26 5.022-5.029 5.022c-2.773 0-5.026-2.249-5.026-5.022s2.253-5.025 5.026-5.025z"/><path d="m146.06 62.404c-0.229 0-0.441 0.021-0.673 0.049l-13.389 2.547h-9l-13.407-2.546c-0.22-0.028-0.44-0.049-0.659-0.049-2.594 0-4.842 2.12-5.236 4.93-0.434 3.091 1.509 5.928 4.328 6.322l11.974 1.343v7l-7.516 17.93c-0.576 1.396-0.576 2.935 0 4.328 0.58 1.396 1.667 2.487 3.061 3.063 0.692 0.288 1.416 0.435 2.156 0.435 2.303 0 4.36-1.369 5.238-3.498l4.561-11.004 4.549 11.004c0.879 2.121 2.943 3.498 5.245 3.498 0.731 0 1.473-0.147 2.148-0.435 2.879-1.191 4.26-4.517 3.063-7.391l-7.505-17.93v-7l11.969-1.348c1.448-0.206 2.735-1.069 3.537-2.388 0.702-1.146 0.979-2.551 0.789-3.938-0.382-2.793-2.638-4.922-5.233-4.922zm0.505 8.395-14.567 2.201v9l7.848 19.033c0.593 1.406-0.088 3.043-1.494 3.619-0.35 0.147-0.701 0.213-1.053 0.213-1.086 0-2.127-0.644-2.572-1.712l-7.229-17.445-7.229 17.445c-0.44 1.068-1.483 1.712-2.57 1.712-0.357 0-0.715-0.066-1.047-0.213-1.406-0.588-2.084-2.213-1.504-3.619l7.85-19.033v-9l-14.566-2.201c-1.246-0.174-2.082-1.547-1.872-3.062 0.194-1.405 1.243-2.443 2.38-2.443 0.086 0 0.172 0.01 0.258 0.019l13.8 2.687h9l13.803-2.687c0.086-8e-3 0.172-0.019 0.259-0.019 1.147 0 2.182 1.038 2.378 2.443 0.217 1.514-0.627 2.888-1.873 3.062z"/></svg>