<?xml version="1.0" encoding="UTF-8"?><!DOCTYPE svg PUBLIC "-//W3C//DTD SVG 1.1//EN" "http://www.w3.org/Graphics/SVG/1.1/DTD/svg11.dtd"><svg enable-background="new 0 0 182 155" version="1.1" viewBox="0 0 182 155" xml:space="preserve" xmlns="http://www.w3.org/2000/svg"><path d="M6,6v26h10c0-4.44,3.06-9.5,7.5-9.5S31,27.56,31,32h46V6H6z" fill="#E8F3FC"/><path d="m79 1h-75c-1.38 0-3 1.62-3 3v30c0 1.38 1.62 3 3 3h12v38c0 1.38 1.12 2.5 2.5 2.5s2.5-1.121 2.5-2.5v-44c0-1.68 0.82-3.5 2.5-3.5s2.5 1.82 2.5 3.5v28c0 1.38 1.12 2.5 2.5 2.5s2.5-1.121 2.5-2.5v-9c0-1.68 1.82-3.5 3.5-3.5s3.5 1.82 3.5 3.5v9c0 1.38 1.12 2.5 2.5 2.5s2.5-1.12 2.5-2.5v-4c0-1.68 1.319-3.5 3-3.5 1.68 0 3 1.82 3 3.5v8c0 1.38 1.121 2.5 2.5 2.5 1.381 0 2.5-1.121 2.5-2.5v-3c0-1.68 1.32-3.5 3-3.5s3 1.82 3 3.5v24h5v-24c0-4.44-2.561-8.5-7-8.5-1.16 0-3 0.5-4 1.5-0.82-3.569-3.191-6.5-7-6.5-1.181 0-3 0.5-4 1.5-0.92-3.43-4.28-6.5-8-6.5-1.08 0-3 0.5-4 1.5v-6h48c1.38 0 3-1.62 3-3v-30c0-1.39-1.62-3-3-3zm-2 31h-46c0-4.44-3.06-9.5-7.5-9.5s-7.5 5.06-7.5 9.5h-10v-26h71v26z" fill="#555"/><path d="m33.28 15.25c1.15 0 2.07-0.93 2.07-2.07s-0.93-2.07-2.07-2.07c-1.15 0-2.07 0.93-2.07 2.07s0.93 2.07 2.07 2.07z"/><circle cx="50.649" cy="13.18" r="2.07"/><path d="m50.649 21.54c1.15 0 2.07-0.93 2.07-2.07 0-1.15-0.93-2.07-2.07-2.07-1.139 0-2.069 0.93-2.069 2.07s0.931 2.07 2.069 2.07z"/><path d="m56.681 21.54c1.149 0 2.069-0.93 2.069-2.07 0-1.15-0.931-2.07-2.069-2.07-1.15 0-2.07 0.93-2.07 2.07-1e-3 1.14 0.919 2.07 2.07 2.07z"/><path d="m50.649 27.82c1.15 0 2.07-0.93 2.07-2.07s-0.93-2.07-2.07-2.07c-1.139 0-2.069 0.93-2.069 2.07s0.931 2.07 2.069 2.07z"/><circle cx="67.851" cy="13.18" r="2.07"/><path d="m67.851 21.54c1.149 0 2.069-0.93 2.069-2.07 0-1.15-0.93-2.07-2.069-2.07-1.141 0-2.07 0.93-2.07 2.07-1e-3 1.14 0.929 2.07 2.07 2.07z"/><path d="m67.851 27.82c1.149 0 2.069-0.93 2.069-2.07s-0.93-2.07-2.069-2.07c-1.141 0-2.07 0.93-2.07 2.07s0.929 2.07 2.07 2.07z"/><path d="m33.28 21.54c1.15 0 2.07-0.93 2.07-2.07 0-1.15-0.93-2.07-2.07-2.07-1.15 0-2.07 0.93-2.07 2.07s0.93 2.07 2.07 2.07z"/><path d="m6 106v43h77v-43h-77zm32.168 28.606c-4.088-0.994-9.168-3.733-9.168-6.606 0-2 6-7 13-7 2.413 0 4.713 0.597 6.684 1.458m1.85 0.936c2.715 1.57 4.466 3.526 4.466 4.606 0 2-7 7-14 7-0.164 0-0.335-6e-3 -0.512-0.018m10.046-11.588-10.046 11.589m8.196-12.525-10.516 12.148" fill="#E8F3FC"/><path d="m83 87h-77c-2.92 0-5 2.08-5 5v57c0 2.92 2.08 5 5 5h77c2.92 0 5-2.08 5-5v-57c0-2.92-2.08-5-5-5zm0 5v11h-77v-11h77zm-77 57v-43h77v43h-77z" fill="#555"/><path d="m33.828 135.69c-2.056-1.881-3.973-3.499-5.728-5.275-1.83-1.853-1.766-2.166-0.063-4.099 3.515-3.986 7.723-6.774 13.148-7.194 1.557-0.121 3.209 0.087 4.716 0.506 1.279 0.356 1.455 0.519 1.455 0.519l6.502-7.453 2.204 1.333-25.281 29.063-2.281-1.253 5.328-6.147zm11.575-12.933c-4.604-2.844-12.324 0.978-15.69 5.79 1.542 1.326 3.072 2.741 4.722 3.998 0.447 0.341 1.412 0.479 1.869 0.226 0.774-0.432 1.29-1.185 0.743-2.287-0.982-1.979-0.663-3.912 0.74-5.566 1.439-1.698 3.291-2.28 5.528-1.792 0.638 0.139 1.611 0.339 2.088-0.369zm-6.036 6.606c1.117-1.296 2.051-2.38 3.092-3.588-2.435-0.666-3.946 1.106-3.092 3.588zm1.951 8.261c6.494-0.154 11.296-3.462 15.199-8.313 0.343-0.426 0.279-1.628-0.083-2.09-1.082-1.381-2.337-2.651-3.652-3.821-0.724-0.644-1.282-1.204-1.282-1.204l-1.65 1.909c1.131 1.069 2.277 2.101 3.323 3.28 0.314 0.354 0.434 1.396 0.171 1.667-3.205 3.314-6.639 6.128-12.5 5.537l-2.244 2.483c0 1e-3 1.009 0.552 2.718 0.552z" clip-rule="evenodd" fill-rule="evenodd"/><path d="m11.48 100.41c1.56 0 2.82-1.26 2.82-2.82s-1.26-2.82-2.82-2.82-2.82 1.26-2.82 2.82 1.26 2.82 2.82 2.82z" fill="#555"/><circle cx="20" cy="97.591" r="2.82" fill="#555"/><circle cx="28.52" cy="97.591" r="2.82" fill="#555"/><path d="M110,6v48h66V6H110z M132.5,42c-6.903,0-12.5-5.597-12.5-12.5S125.597,17,132.5,17S145,22.597,145,29.5  S139.403,42,132.5,42z" fill="#E8F3FC"/><path d="m174 1h-62c-4.46 0-7 3.54-7 8v42c0 4.459 2.54 8 7 8h23c-0.471 4.359-2.02 10-5 10-0.83 0-2 0.67-2 1.5s1.17 1.5 2 1.5h26c0.83 0 2-0.669 2-1.5s-1.17-1.5-2-1.5c-2.969 0-4.521-5.641-5-10h23c4.461 0 7-3.541 7-8v-42c0.01-4.46-2.539-8-7-8zm-23 68h-16c1.93-2.93 2.73-7.201 3-10h10c0.271 2.799 1.07 7.07 3 10zm25-18c0 1.709-1.299 3-3 3h-60c-1.71 0-3-1.301-3-3v-42c0-1.71 1.3-3 3-3h60c1.711 0 3 1.3 3 3v42z" fill="#555"/><path d="m159.31 13.12c-0.619-0.55-1.57-0.48-2.119 0.14-0.551 0.62-0.48 1.57 0.139 2.12 4.23 3.71 7.17 9.121 7.17 14.621s-2.939 10.67-7.17 14.379c-0.619 0.551-0.68 1.49-0.139 2.121 0.299 0.34 0.709 0.51 1.129 0.51 0.35 0 0.701-0.121 0.99-0.371 4.88-4.28 8.189-10.279 8.189-16.64 0-6.379-3.309-12.59-8.189-16.88z"/><path d="m155.17 17.15c-0.629-0.54-1.58-0.46-2.119 0.17-0.541 0.63-0.461 1.58 0.17 2.11 3.109 2.65 5.279 6.58 5.279 10.57s-2.17 7.67-5.279 10.33c-0.631 0.54-0.711 1.479-0.17 2.11 0.301 0.35 0.721 0.529 1.141 0.529 0.34 0 0.689-0.119 0.969-0.359 3.781-3.221 6.34-7.74 6.34-12.61s-2.55-9.63-6.331-12.85z"/><path d="m151 21.17c-0.648-0.52-1.59-0.41-2.109 0.23-0.52 0.65-0.42 1.59 0.23 2.11 1.98 1.59 3.379 4.03 3.379 6.49s-1.398 4.67-3.379 6.25c-0.65 0.52-0.75 1.459-0.23 2.11 0.301 0.37 0.73 0.561 1.17 0.561 0.33 0 0.66-0.111 0.939-0.33 2.691-2.161 4.5-5.21 4.5-8.59s-1.809-6.681-4.5-8.831z"/><circle cx="132.5" cy="29.5" r="12.5" fill="none" stroke="#000" stroke-miterlimit="10" stroke-width="2"/><circle cx="132.5" cy="24" r="1.75"/><path d="m138 26-4 1h-3l-4-1c-0.34-0.05-0.351 1.95 0 2l4 1v2l-3 5c-0.16 0.39 1.84 1.39 2 1l2.5-5 2.5 5c0.16 0.39 2.16-0.61 2-1l-3-5v-2l4-1c0.341-0.05 0.34-2.05 0-2z"/><path d="m104 106v43h72v-43h-72zm65 36h-58v-28h58v28z" fill="#E8F3FC"/><path d="m178 101h-76c-1.379 0-3 1.619-3 3v47c0 1.379 1.621 3 3 3h76c1.379 0 3-1.621 3-3v-47c0-1.381-1.621-3-3-3zm-2 48h-72v-43h72v43z" fill="#555"/><path d="m110 144h60c0.41 0 1-0.59 1-1v-30c0-0.41-0.59-1-1-1h-60c-0.41 0-1 0.59-1 1v30c0.01 0.41 0.58 1 1 1zm40-12h-9v-9h9v9zm-10 0h-9v-9h9v9zm-10 0h-9v-9h9v9zm-10 0h-9v-9h9v9zm-9 1h9v9l-9 0.068v-9.068zm10 0h38v9.068h-38v-9.068zm48.06 9.068h-9.06v-9.068h9.06v9.068zm0-10.068h-18.06v-9h10v-9h8.06v18zm-9.06-10h-9v-8h9v8zm-10 0h-9v-8h9v8zm-10 0h-9v-8h9v8zm-10 0h-9v-8h9v8zm-19-8h9v8h-9v-8z"/><path d="m142 101v-29h3v29h-3z" fill="#555"/><path d="m105 34h-23v-3h23v3z" fill="#555"/><path d="m99 124h-11v-3h11v3z" fill="#555"/></svg>