<?xml version="1.0" encoding="UTF-8"?><!DOCTYPE svg PUBLIC "-//W3C//DTD SVG 1.1//EN" "http://www.w3.org/Graphics/SVG/1.1/DTD/svg11.dtd"><svg enable-background="new 0 0 140 140" version="1.1" viewBox="0 0 140 140" xml:space="preserve" xmlns="http://www.w3.org/2000/svg"><path d="m70 3c36.944 0 67 30.056 67 67s-30.056 67-67 67-67-30.056-67-67 30.056-67 67-67m0-3c-38.658 0-70 31.342-70 70s31.342 70 70 70 70-31.342 70-70-31.342-70-70-70z" fill="#EEE"/><path d="m70 0c0 38.658-31.342 70-70 70" fill="none" stroke="#EEE" stroke-miterlimit="10" stroke-width="3"/><path d="m140 70c-38.658 0-70-31.342-70-70" fill="none" stroke="#EEE" stroke-miterlimit="10" stroke-width="3"/><path d="m0 70c38.658 0 70 31.342 70 70" fill="none" stroke="#EEE" stroke-miterlimit="10" stroke-width="3"/><path d="m70 140c0-38.658 31.342-70 70-70" fill="none" stroke="#EEE" stroke-miterlimit="10" stroke-width="3"/></svg>