<?xml version="1.0" encoding="UTF-8"?><!DOCTYPE svg PUBLIC "-//W3C//DTD SVG 1.1//EN" "http://www.w3.org/Graphics/SVG/1.1/DTD/svg11.dtd"><svg width="1140px" height="1140px" enable-background="new 0.5 1130.5 1140 1140" version="1.1" viewBox=".5 1130.5 1140 1140" xml:space="preserve" xmlns="http://www.w3.org/2000/svg"><path d="m278.86 1202c-256.16 141.93-348.76 464.64-206.83 720.8 141.93 256.16 464.64 348.76 720.8 206.84l275.53 131.22c12.721 5.987 27.452 5.977 40.164-0.03 23.511-11.108 33.565-39.174 22.456-62.685l-131.08-275.53c43.885-78.943 66.853-167.8 66.724-258.12-0.42-292.54-237.91-529.35-530.45-528.93-90.021-0.056-178.57 22.806-257.32 66.435zm257.36 900.45c-81.067 0-160.55-22.582-229.51-65.195-204.82-126.56-268.26-395.25-141.7-600.07s395.19-268.29 600.01-141.73c204.82 126.56 268.26 395.18 141.7 600-8.477 13.621-9.435 30.613-2.542 45.1l70.625 148.31c1.513 3.191 1.513 6.892 0 10.084-2.785 5.874-9.806 8.377-15.679 5.592l-148.31-70.626c-14.463-6.935-31.461-5.92-45.106 2.512-68.868 42.941-148.37 66.025-229.53 66.025h0.048z" fill="#969696"/><circle cx="312.09" cy="1582.7" r="70.625" fill="#969696"/><circle cx="759.38" cy="1582.7" r="70.625" fill="#969696"/><path d="m653.44 1766.5h-233.86c-13.002 0-23.541 10.164-23.541 23.166 1.42 77.58 65.463 139.13 143.04 137.71 75.58-1.384 136.52-62.039 137.9-137.62 0-13.002-10.539-23.26-23.541-23.26z" fill="#969696"/></svg>