<?xml version="1.0" encoding="UTF-8"?><!DOCTYPE svg PUBLIC "-//W3C//DTD SVG 1.1//EN" "http://www.w3.org/Graphics/SVG/1.1/DTD/svg11.dtd"><svg enable-background="new 0 0 530 560" version="1.1" viewBox="0 0 530 560" xml:space="preserve" xmlns="http://www.w3.org/2000/svg"><path d="M459.828,106.469l-91.641-91.406C358.344,5.219,345.125,0,331.234,0H108C79.015,0,55,22.904,55,51.891v455  C55,535.875,79.015,560,108,560h315c28.984,0,52-24.125,52-53.109V143.655C475,129.766,469.672,116.313,459.828,106.469z   M418.734,140H335V56.154L418.734,140z M107,508V53h175v112.641C282,180.188,294.703,193,309.25,193H422v315H107z"/><path d="m386.66 353.66c-13.624-13.4-52.484-9.718-71.916-7.258-19.209-11.726-32.051-27.918-41.095-51.703 4.355-17.979 11.279-45.338 6.029-62.535-4.692-29.258-42.212-26.355-47.572-6.589-4.913 17.979-0.446 42.993 7.817 74.931-11.167 26.691-27.804 62.535-39.531 83.082-22.334 11.504-52.484 29.258-56.951 51.592-3.685 17.644 29.035 61.642 84.981-34.841 25.013-8.264 52.261-18.426 76.382-22.446 21.106 11.391 45.786 18.986 62.312 18.986 28.478-2e-3 31.271-31.495 19.544-43.219zm-221.22 86.879c5.695-15.299 27.359-32.943 33.948-39.085-21.217 33.836-33.948 39.865-33.948 39.085zm91.122-212.84c8.264 0 7.482 35.845 2.01 45.562-4.913-15.523-4.801-45.562-2.01-45.562zm-27.247 152.54c10.832-18.87 20.101-41.318 27.583-61.082 9.269 16.862 21.104 30.374 33.611 39.641-23.226 4.803-43.439 14.629-61.194 21.441zm146.96-5.582s-5.583 6.701-41.653-8.707c39.197-2.906 45.674 6.028 41.653 8.707z" fill="#f00"/></svg>