<?xml version="1.0" encoding="utf-8"?><!DOCTYPE svg PUBLIC "-//W3C//DTD SVG 1.1//EN" "http://www.w3.org/Graphics/SVG/1.1/DTD/svg11.dtd"><svg version="1.1" id="Layer_1" xmlns="http://www.w3.org/2000/svg" xmlns:xlink="http://www.w3.org/1999/xlink" x="0px" y="0px" width="1140px" height="1140px" viewBox="298.189 -5 1140 1140" enable-background="new 298.189 -5 1140 1140" xml:space="preserve">
<path fill="#969696" d="M576.55,66.548C320.391,208.476,227.788,531.19,369.716,787.349
	c141.929,256.16,464.642,348.763,720.801,206.835l275.532,131.221c12.721,5.987,27.452,5.977,40.164-0.03
	c23.511-11.108,33.565-39.174,22.456-62.685l-131.08-275.531c43.885-78.943,66.853-167.798,66.724-258.118
	c-0.42-292.538-237.909-529.347-530.447-528.927C743.846,0.057,655.293,22.919,576.55,66.548z M833.913,966.781
	c-81.067,0.067-160.549-22.472-229.514-65.086C399.58,775.136,336.137,506.501,462.696,301.682S857.889,33.42,1062.708,159.979
	c204.819,126.558,268.263,395.192,141.704,600.012c-8.477,13.621-9.435,30.62-2.542,45.106l70.625,148.313
	c1.513,3.191,1.513,6.894,0,10.086c-2.785,5.874-9.806,8.378-15.679,5.593l-148.313-70.625c-14.463-6.935-31.461-6.03-45.106,2.401
	c-68.868,42.942-148.371,65.774-229.531,65.916H833.913z"/>
<circle fill="#969696" cx="609.776" cy="447.244" r="70.625"/>
<circle fill="#969696" cx="1057.068" cy="447.244" r="70.625"/>
<path fill="#969696" d="M951.131,589.247H717.267c-13.002,0-23.541,10.54-23.541,23.542c1.42,77.581,65.463,139.321,143.045,137.901
	c75.58-1.384,136.518-62.321,137.9-137.901C974.672,599.787,964.133,589.247,951.131,589.247z"/>
</svg>