<?xml version="1.0" encoding="utf-8"?>
<!DOCTYPE svg PUBLIC "-//W3C//DTD SVG 1.1//EN" "http://www.w3.org/Graphics/SVG/1.1/DTD/svg11.dtd">
<svg role="img" version="1.1" id="Art" xmlns="http://www.w3.org/2000/svg" xmlns:xlink="http://www.w3.org/1999/xlink" x="0px" y="0px"
	 width="1975px" height="515px" viewBox="0 0 1975 515" enable-background="new 0 0 1975 515" xml:space="preserve">
<title>Sebbe UX Design Pro Logo</title>
<desc>Logo of Sebbe, UX Design Professional.</desc>
<g id="UXDESIGN">
	<path d="M657,484.80957c-10.25391,0-18.54639-1.18457-23.84375-3.55273c-5.29883-2.36719-9.48486-5.44336-12.56104-9.22852
		c-3.07617-3.7832-5.10303-7.75098-6.0791-11.90137C613.09912,453.97461,612,444.89258,612,432.88086V375h23v58.75977
		c0,9.22852,0.33887,15.20996,0.87695,17.94434c0.92676,4.39453,2.13721,7.92285,5.62891,10.58398
		c3.49023,2.66113,9.43896,3.99121,15.49414,3.99121V484.80957z"/>
	<path d="M655,466.2793c6.05518,0,12.00391-1.33008,15.49414-3.99121c3.4917-2.66113,4.70215-6.18945,5.62891-10.58398
		C676.66113,448.96973,677,442.98828,677,433.75977V375h23v57.88086c0,12.01172-1.09912,21.09375-2.51611,27.24609
		c-0.97607,4.15039-3.00293,8.11816-6.0791,11.90137c-3.07617,3.78516-7.26221,6.86133-12.56104,9.22852
		c-5.29736,2.36816-13.58984,3.55273-23.84375,3.55273V466.2793z"/>
	<path d="M729.25342,483l36.69434-56.05176L732.6958,375h25.3418l21.5332,35.10254L800.66455,375h25.12207l-33.39844,52.75391
		L829.08252,483h-26.14746l-23.80371-37.15527L755.25439,483H729.25342z"/>
	<path d="M860,375h39.39502c8.93555,0,15.74707,1.29004,20.43457,2.65625c6.29883,1.85645,11.69336,5.15234,16.18652,9.8877
		c4.4917,4.73633,7.91016,10.53516,10.25391,17.39453c2.34375,6.86133,3.51563,15.32031,3.51563,25.37891
		c0,8.83789-1.09863,16.45508-3.2959,22.85156c-2.68604,7.8125-6.51855,14.13574-11.49902,18.96973
		c-3.76074,3.66211-8.83838,6.51855-15.23438,8.56934C914.97021,482.22168,908.57422,483,900.56689,483H860V375z M882,394v70
		h14.63721c6.05371,0,10.42432,0.18457,13.11035-0.5c3.51563-0.87891,7.43262-2.40039,9.75244-4.5
		c2.31836-2.09863,4.21143-5.15918,5.67627-9.96973c1.46484-4.80859,2.19727-11.36328,2.19727-19.66504
		c0-8.30078-0.73242-14.67285-2.19727-19.11621c-1.46484-4.44238-3.51563-7.91016-6.15234-10.40039
		s-5.98193-4.1748-10.03418-5.05371C905.96143,394.11133,905.83691,394,897,394H882z"/>
	<path d="M988,483V375h80v19h-58v23h54v19h-54v28h59v19H988z"/>
	<path d="M1100.35156,448h21.09375c1.26953,7.08008,3.8457,10.27148,7.72656,13.5918
		c3.88281,3.32129,9.11914,4.98047,15.71094,4.98047c6.98242,0,12.24316-1.47656,15.7832-4.43066s5.31055-6.40918,5.31055-10.36426
		c0-2.53809-0.74512-4.69922-2.23438-6.48145s-4.08984-3.33301-7.7998-4.65137c-2.53906-0.87891-8.3252-2.44141-17.3584-4.6875
		c-11.62109-2.88086-19.77539-6.41992-24.46289-10.62012c-6.5918-5.90723-9.8877-13.11035-9.8877-21.60645
		c0-5.46777,1.5498-10.58301,4.65137-15.34473c3.09961-4.75977,7.56738-8.38574,13.40234-10.87598
		s12.87891-3.73535,21.13086-3.73535c13.47656,0,23.62109,2.95508,30.43164,8.8623
		c6.8125,5.9082,10.38867,13.50098,10.73047,23.36328h-21.67969c-0.92773-5.51758-2.91797-8.23926-5.96875-10.65527
		c-3.05273-2.41797-7.62988-3.62598-13.7334-3.62598c-6.29883,0-11.23145,1.29395-14.79492,3.88184
		c-2.2959,1.66016-3.44238,3.88184-3.44238,6.66504c0,2.53906,1.07324,4.71289,3.22266,6.51855
		c2.73438,2.2959,9.375,4.6875,19.92188,7.17773s18.34766,5.06641,23.40039,7.72656
		c5.05469,2.66211,9.00977,6.29883,11.86523,10.91406c2.85742,4.61328,4.28516,10.31543,4.28516,17.10156
		c0,6.15234-1.70996,11.91406-5.12695,17.28516c-3.41797,5.37207-8.25195,9.36328-14.50195,11.97461
		c-6.25098,2.6123-14.03809,3.91895-23.36426,3.91895c-13.5752,0-23.99902-3.13672-31.27441-9.41113
		C1106.1123,469.19727,1101.76758,460.01172,1100.35156,448z"/>
	<path d="M1225,483V375h22v108H1225z"/>
	<path d="M1338,484.80957c-11.23145,0-20.84961-2.35547-29.19922-7.06836c-8.34961-4.71094-14.62402-11.44922-18.82324-20.21484
		c-4.2002-8.76367-6.29883-18.29785-6.29883-28.60059c0-11.18066,2.34375-21.11816,7.03125-29.80957
		c4.6875-8.69043,11.54688-15.35547,20.58105-19.99512c6.88477-3.56348,15.4541-5.34668,25.70801-5.34668
		c13.33008,0,23.74219,2.7959,31.2373,8.38672S1380.55273,395.1377,1382.70215,405h-21.5332c0,0-2.99512-5.06543-7.16895-8.11816
		c-4.17578-3.05078-10.75098-4.57715-17.00098-4.57715c-9.47363,0-17.00488,3.00293-22.59473,9.00879
		c-5.5918,6.00586-8.38672,14.91699-8.38672,26.7334c0,12.74414,2.83105,22.30176,8.49609,28.6748
		c5.66406,6.37109,16.42871,9.55762,22.48633,9.55762c17.73633,0,28-9.2793,28-9.2793v-13h-28v-19h47v42
		C1384,467,1364.84668,484.80957,1338,484.80957z"/>
	<path d="M1424,483V375h21.41504L1489,452v-77h20v108h-21.25098L1444,408v75H1424z"/>
	<circle id="Dot" cx="1562.5" cy="432.5" r="18"/>
	<path d="M1614,483V375h35.03809c13.18359,0,21.77734,1.14355,25.78125,2.2168c6.15234,1.61133,11.30371,5.11523,15.4541,10.51074
		c4.14941,5.39551,6.22559,12.36621,6.22559,20.91016c0,6.5918-1.19727,12.13379-3.58887,16.62598
		c-2.39258,4.49316-5.43262,8.02051-9.11914,10.58301c-3.68652,2.56445-7.43359,4.26074-11.24219,5.09082
		c-5.17578,1.02539-12.6709,2.0625-22.48535,2.0625H1636v40H1614z M1636,394v30h12c8.54395,0,14.0498-0.32227,16.93164-1.44629
		c2.88086-1.12305,5.13867-2.88086,6.77539-5.27344c1.63477-2.3916,2.45313-5.1748,2.45313-8.34961
		c0-3.90625-1.14746-7.12891-3.44238-9.66797c-2.2959-2.53809-5.2002-4.12598-8.71582-4.76074
		c-2.58887-0.4873-5.78906-0.50195-13.60059-0.50195H1636z"/>
	<path d="M1731,483V375h45.92383c11.47363,0,19.8125,1.57031,25.01172,3.49902c5.20117,1.92871,9.36328,5.3584,12.48828,10.29004
		c3.12402,4.93262,4.6875,10.57227,4.6875,16.91895c0,8.05664-2.36914,14.70996-7.10449,19.95898
		c-4.73633,5.24902-11.81738,8.55762-21.24023,9.92383c4.6875,2.73535,8.55664,5.73828,11.6084,9.00879
		c3.05176,3.27148,7.16602,9.08203,12.3418,17.43164L1827.82715,483h-25.92773l-15.67383-23.38574
		c-5.56641-8.34961-9.375-13.61035-11.42578-15.7832s-4.22363-3.66211-6.51855-4.46875
		c-2.2959-0.80469-5.93262-1.3623-10.91309-1.3623H1753v45H1731z M1753,421h16.01367c10.40039,0,16.89355-0.42383,19.48242-1.30273
		c2.58789-0.87891,4.61426-2.3916,6.0791-4.54102c1.46484-2.14844,2.19727-4.83398,2.19727-8.05664
		c0-3.61328-0.96484-6.53027-2.89355-8.75293c-1.92871-2.2207-4.65039-3.625-8.16602-4.21094
		c-1.75781-0.24414-7.03125-0.13574-15.82031-0.13574H1753V421z"/>
	<path d="M1903,466.2793c8.64258,0,17.0166-3.1123,22.55859-9.33887c5.54199-6.22461,8.94141-13.98926,8.94141-26.44043
		c0-12.30469-3.32617-23.05859-8.7207-29.11328c-5.39648-6.05371-13.84375-9.08203-22.7793-9.08203v-18.53027
		c15.82031,0,29.54102,4.90723,39.03906,14.72168C1951.53516,398.31055,1956.5,413.02051,1956.5,430.5
		c0,17.33398-4.92871,29.83496-14.35156,39.62402c-9.42383,9.79102-23.37695,14.68555-39.14844,14.68555V466.2793z"/>
	<path d="M1905,484.80957c-15.77148,0-29.72461-4.89453-39.14844-14.68555C1856.42871,460.33496,1851.5,447.83398,1851.5,430.5
		c0-17.47949,4.96484-32.18945,14.46094-42.00391c9.49805-9.81445,23.21875-14.72168,39.03906-14.72168v18.53027
		c-8.93555,0-17.38281,3.02832-22.7793,9.08203c-5.39453,6.05469-8.7207,16.80859-8.7207,29.11328
		c0,12.45117,3.39941,20.21582,8.94141,26.44043c5.54199,6.22656,13.91602,9.33887,22.55859,9.33887V484.80957z"/>
</g>
<g id="SEBBE">
	<path id="_x35_-E" d="M1772,252h185v45h-228V144h228v45h-185V252z M1929,95h-200V50h245L1929,95z"/>
	<path id="_x34_-B" d="M1619.375,252c17.39941,0,33.125-14.09961,33.125-31.5s-15.72559-31.5-33.125-31.5H1487v63H1619.375z
		 M1619.375,297H1444V144h175.375c40.97266,0,78.125,35.52637,78.125,76.5S1670.27051,297,1619.375,297z M1623.44629,95H1432l45-45
		h140.33887c44.78809,0,78.16113,31.33203,78.16113,69.5c0,38.16846-33.5,69.5-72.5,69.5v-45c17,0,29.5-9.90723,29.5-24.5
		S1638.03906,95,1623.44629,95z"/>
	<path id="_x33_-B" d="M1334.35449,252c17.40039,0,33.14551-14.09961,33.14551-31.5s-15.74512-31.5-33.14551-31.5H1202v63
		H1334.35449z M1334.35449,297H1159V144h175.35449c40.97363,0,78.14551,35.52637,78.14551,76.5S1385.25098,297,1334.35449,297z
		 M1338.42578,95H1147l45-45h140.31836c44.78906,0,78.18164,31.33203,78.18164,69.5c0,38.16846-33.5,69.5-72.5,69.5v-45
		c17,0,29.5-9.90723,29.5-24.5S1353.01953,95,1338.42578,95z"/>
	<path id="_x32_-E" d="M937,252h186v45H895V144h228v45H937V252z M1094,95H895V50h244L1094,95z"/>
	<path id="_x31_-S" d="M782.6377,297H612v-45h176.74512c17.3999,0,31.75488-14.09961,31.75488-31.5S806.14502,189,788.74512,189H655
		l-45-45h172.6377c50.896,0,82.8623,35.52637,82.8623,76.5S833.53369,297,782.6377,297z M811,95H612V50h244L811,95z"/>
</g>
<g id="LOGO">
	<path d="M257.5,513.5c-140.88379,0-256-115.11816-256-256c0-140.88379,115.11621-256,256-256c140.8833,0,256,115.11621,256,256
		C513.5,398.38184,398.3833,513.5,257.5,513.5z M257.5,28.5c-126.19434,0-229,102.80664-229,229s102.80566,229,229,229
		c126.19385,0,229-102.80664,229-229S383.69385,28.5,257.5,28.5z"/>
	<path d="M330,411H168l-59-59h221c16.69238,0,30.5-13.80762,30.5-30.5S346.69238,291,330,291H168l-59-59h221
		c50.07813,0,89.5,39.41992,89.5,89.5C419.5,371.57617,380.07813,411,330,411z M200,214l-91-92h108l41-41h75l-41,41h118l-59,59H233
		L200,214z"/>
</g>
</svg>
