<?xml version="1.0" encoding="utf-8"?>
<!DOCTYPE svg PUBLIC "-//W3C//DTD SVG 1.1//EN" "http://www.w3.org/Graphics/SVG/1.1/DTD/svg11.dtd">
<svg role="img" version="1.1" id="LOGO" xmlns="http://www.w3.org/2000/svg" xmlns:xlink="http://www.w3.org/1999/xlink" x="0px" y="0px"
	 width="515px" height="515px" viewBox="0 0 515 515" enable-background="new 0 0 515 515" xml:space="preserve">
<title>Sebbe UX Design Pro Logo</title>
<desc>Logo of Sebbe, UX Design Professional.</desc>
<path id="Circle" fill="#FFFFFF" d="M257.5,513.5c-140.884,0-256-115.118-256-256c0-140.884,115.116-256,256-256
	c140.883,0,256,115.116,256,256C513.5,398.382,398.383,513.5,257.5,513.5z M257.5,28.5c-126.194,0-229,102.807-229,229
	s102.806,229,229,229c126.194,0,229-102.807,229-229S383.694,28.5,257.5,28.5z"/>
<path id="Graphic" fill="#FFFFFF" d="M330,411H168l-59-59h221c16.692,0,30.5-13.808,30.5-30.5S346.692,291,330,291H168l-59-59h221
	c50.078,0,89.5,39.42,89.5,89.5C419.5,371.576,380.078,411,330,411z M200,214l-91-92h108l41-41h75l-41,41h118l-59,59H233L200,214z"
	/>
</svg>
