<?xml version="1.0" encoding="utf-8"?>
<!DOCTYPE svg PUBLIC "-//W3C//DTD SVG 1.1//EN" "http://www.w3.org/Graphics/SVG/1.1/DTD/svg11.dtd">
<svg role="img" version="1.1" id="Art" xmlns="http://www.w3.org/2000/svg" xmlns:xlink="http://www.w3.org/1999/xlink" x="0px" y="0px"
	 width="1975px" height="515px" viewBox="0 0 1975 515" enable-background="new 0 0 1975 515" xml:space="preserve">
<title>Sebbe UX Design Pro Logo</title>
<desc>Logo of Sebbe, UX Design Professional.</desc>
<g id="UXDESIGN">
	<path fill="#FFFFFF" d="M657,484.81c-10.254,0-18.546-1.185-23.844-3.553c-5.299-2.367-9.485-5.443-12.561-9.229
		c-3.076-3.783-5.103-7.751-6.079-11.901c-1.417-6.152-2.516-15.234-2.516-27.246V375h23v58.76c0,9.229,0.339,15.21,0.877,17.944
		c0.927,4.395,2.137,7.923,5.629,10.584c3.49,2.661,9.439,3.991,15.494,3.991V484.81z"/>
	<path fill="#FFFFFF" d="M655,466.279c6.055,0,12.004-1.33,15.494-3.991c3.492-2.661,4.702-6.189,5.629-10.584
		c0.538-2.734,0.877-8.716,0.877-17.944V375h23v57.881c0,12.012-1.099,21.094-2.516,27.246c-0.976,4.15-3.003,8.118-6.079,11.901
		c-3.076,3.785-7.262,6.861-12.561,9.229c-5.297,2.368-13.59,3.553-23.844,3.553V466.279z"/>
	<path fill="#FFFFFF" d="M729.253,483l36.694-56.052L732.696,375h25.342l21.533,35.103L800.665,375h25.122l-33.398,52.754
		L829.083,483h-26.147l-23.804-37.155L755.254,483H729.253z"/>
	<path fill="#FFFFFF" d="M860,375h39.395c8.936,0,15.747,1.29,20.435,2.656c6.299,1.856,11.693,5.152,16.187,9.888
		c4.492,4.736,7.91,10.535,10.254,17.395c2.344,6.861,3.516,15.32,3.516,25.379c0,8.838-1.099,16.455-3.296,22.852
		c-2.686,7.813-6.519,14.136-11.499,18.97c-3.761,3.662-8.838,6.519-15.234,8.569c-4.786,1.514-11.182,2.292-19.189,2.292H860V375z
		 M882,394v70h14.637c6.054,0,10.424,0.185,13.11-0.5c3.516-0.879,7.433-2.4,9.752-4.5c2.318-2.099,4.211-5.159,5.676-9.97
		c1.465-4.809,2.197-11.363,2.197-19.665c0-8.301-0.732-14.673-2.197-19.116c-1.465-4.442-3.516-7.91-6.152-10.4
		s-5.982-4.175-10.034-5.054C905.961,394.111,905.837,394,897,394H882z"/>
	<path fill="#FFFFFF" d="M988,483V375h80v19h-58v23h54v19h-54v28h59v19H988z"/>
	<path fill="#FFFFFF" d="M1100.352,448h21.094c1.27,7.08,3.846,10.271,7.727,13.592c3.883,3.321,9.119,4.98,15.711,4.98
		c6.982,0,12.243-1.477,15.783-4.431s5.311-6.409,5.311-10.364c0-2.538-0.745-4.699-2.234-6.481s-4.09-3.333-7.8-4.651
		c-2.539-0.879-8.325-2.441-17.358-4.688c-11.621-2.881-19.775-6.42-24.463-10.62c-6.592-5.907-9.888-13.11-9.888-21.606
		c0-5.468,1.55-10.583,4.651-15.345c3.1-4.76,7.567-8.386,13.402-10.876s12.879-3.735,21.131-3.735
		c13.477,0,23.621,2.955,30.432,8.862c6.813,5.908,10.389,13.501,10.73,23.363h-21.68c-0.928-5.518-2.918-8.239-5.969-10.655
		c-3.053-2.418-7.63-3.626-13.733-3.626c-6.299,0-11.231,1.294-14.795,3.882c-2.296,1.66-3.442,3.882-3.442,6.665
		c0,2.539,1.073,4.713,3.223,6.519c2.734,2.296,9.375,4.688,19.922,7.178s18.348,5.066,23.4,7.727
		c5.055,2.662,9.01,6.299,11.865,10.914c2.857,4.613,4.285,10.315,4.285,17.102c0,6.152-1.71,11.914-5.127,17.285
		c-3.418,5.372-8.252,9.363-14.502,11.975c-6.251,2.612-14.038,3.919-23.364,3.919c-13.575,0-23.999-3.137-31.274-9.411
		C1106.112,469.197,1101.768,460.012,1100.352,448z"/>
	<path fill="#FFFFFF" d="M1225,483V375h22v108H1225z"/>
	<path fill="#FFFFFF" d="M1338,484.81c-11.231,0-20.85-2.355-29.199-7.068c-8.35-4.711-14.624-11.449-18.823-20.215
		c-4.2-8.764-6.299-18.298-6.299-28.601c0-11.181,2.344-21.118,7.031-29.81c4.688-8.69,11.547-15.355,20.581-19.995
		c6.885-3.563,15.454-5.347,25.708-5.347c13.33,0,23.742,2.796,31.237,8.387s12.316,12.977,14.466,22.839h-21.533
		c0,0-2.995-5.065-7.169-8.118c-4.176-3.051-10.751-4.577-17.001-4.577c-9.474,0-17.005,3.003-22.595,9.009
		c-5.592,6.006-8.387,14.917-8.387,26.733c0,12.744,2.831,22.302,8.496,28.675c5.664,6.371,16.429,9.558,22.486,9.558
		c17.736,0,28-9.279,28-9.279v-13h-28v-19h47v42C1384,467,1364.847,484.81,1338,484.81z"/>
	<path fill="#FFFFFF" d="M1424,483V375h21.415L1489,452v-77h20v108h-21.251L1444,408v75H1424z"/>
	<circle id="Dot" fill="#FFFFFF" cx="1562.5" cy="432.5" r="18"/>
	<path fill="#FFFFFF" d="M1614,483V375h35.038c13.184,0,21.777,1.144,25.781,2.217c6.152,1.611,11.304,5.115,15.454,10.511
		c4.149,5.396,6.226,12.366,6.226,20.91c0,6.592-1.197,12.134-3.589,16.626c-2.393,4.493-5.433,8.021-9.119,10.583
		c-3.687,2.564-7.434,4.261-11.242,5.091c-5.176,1.025-12.671,2.063-22.485,2.063H1636v40H1614z M1636,394v30h12
		c8.544,0,14.05-0.322,16.932-1.446c2.881-1.123,5.139-2.881,6.775-5.273c1.635-2.392,2.453-5.175,2.453-8.35
		c0-3.906-1.147-7.129-3.442-9.668c-2.296-2.538-5.2-4.126-8.716-4.761c-2.589-0.487-5.789-0.502-13.601-0.502H1636z"/>
	<path fill="#FFFFFF" d="M1731,483V375h45.924c11.474,0,19.813,1.57,25.012,3.499c5.201,1.929,9.363,5.358,12.488,10.29
		c3.124,4.933,4.688,10.572,4.688,16.919c0,8.057-2.369,14.71-7.104,19.959c-4.736,5.249-11.817,8.558-21.24,9.924
		c4.688,2.735,8.557,5.738,11.608,9.009c3.052,3.271,7.166,9.082,12.342,17.432l13.11,20.969h-25.928l-15.674-23.386
		c-5.566-8.35-9.375-13.61-11.426-15.783s-4.224-3.662-6.519-4.469c-2.296-0.805-5.933-1.362-10.913-1.362H1753v45H1731z M1753,421
		h16.014c10.4,0,16.894-0.424,19.482-1.303c2.588-0.879,4.614-2.392,6.079-4.541c1.465-2.148,2.197-4.834,2.197-8.057
		c0-3.613-0.965-6.53-2.894-8.753c-1.929-2.221-4.65-3.625-8.166-4.211c-1.758-0.244-7.031-0.136-15.82-0.136H1753V421z"/>
	<path fill="#FFFFFF" d="M1903,466.279c8.643,0,17.017-3.112,22.559-9.339c5.542-6.225,8.941-13.989,8.941-26.44
		c0-12.305-3.326-23.059-8.721-29.113c-5.396-6.054-13.844-9.082-22.779-9.082v-18.53c15.82,0,29.541,4.907,39.039,14.722
		c9.496,9.814,14.461,24.524,14.461,42.004c0,17.334-4.929,29.835-14.352,39.624c-9.424,9.791-23.377,14.686-39.148,14.686V466.279z
		"/>
	<path fill="#FFFFFF" d="M1905,484.81c-15.771,0-29.725-4.895-39.148-14.686c-9.423-9.789-14.352-22.29-14.352-39.624
		c0-17.479,4.965-32.189,14.461-42.004c9.498-9.814,23.219-14.722,39.039-14.722v18.53c-8.936,0-17.383,3.028-22.779,9.082
		c-5.395,6.055-8.721,16.809-8.721,29.113c0,12.451,3.399,20.216,8.941,26.44c5.542,6.227,13.916,9.339,22.559,9.339V484.81z"/>
</g>
<g id="SEBBE">
	<path id="_x35_-E" fill="#FFFFFF" d="M1772,252h185v45h-228V144h228v45h-185V252z M1929,95h-200V50h245L1929,95z"/>
	<path id="_x34_-B" fill="#FFFFFF" d="M1619.375,252c17.399,0,33.125-14.1,33.125-31.5s-15.726-31.5-33.125-31.5H1487v63H1619.375z
		 M1619.375,297H1444V144h175.375c40.973,0,78.125,35.526,78.125,76.5S1670.271,297,1619.375,297z M1623.446,95H1432l45-45h140.339
		c44.788,0,78.161,31.332,78.161,69.5c0,38.168-33.5,69.5-72.5,69.5v-45c17,0,29.5-9.907,29.5-24.5S1638.039,95,1623.446,95z"/>
	<path id="_x33_-B" fill="#FFFFFF" d="M1334.354,252c17.4,0,33.146-14.1,33.146-31.5s-15.745-31.5-33.146-31.5H1202v63H1334.354z
		 M1334.354,297H1159V144h175.354c40.974,0,78.146,35.526,78.146,76.5S1385.251,297,1334.354,297z M1338.426,95H1147l45-45h140.318
		c44.789,0,78.182,31.332,78.182,69.5c0,38.168-33.5,69.5-72.5,69.5v-45c17,0,29.5-9.907,29.5-24.5S1353.02,95,1338.426,95z"/>
	<path id="_x32_-E" fill="#FFFFFF" d="M937,252h186v45H895V144h228v45H937V252z M1094,95H895V50h244L1094,95z"/>
	<path id="_x31_-S" fill="#FFFFFF" d="M782.638,297H612v-45h176.745c17.4,0,31.755-14.1,31.755-31.5S806.145,189,788.745,189H655
		l-45-45h172.638c50.896,0,82.862,35.526,82.862,76.5S833.534,297,782.638,297z M811,95H612V50h244L811,95z"/>
</g>
<g id="LOGO">
	<path fill="#FFFFFF" d="M257.5,513.5c-140.884,0-256-115.118-256-256c0-140.884,115.116-256,256-256c140.883,0,256,115.116,256,256
		C513.5,398.382,398.383,513.5,257.5,513.5z M257.5,28.5c-126.194,0-229,102.807-229,229s102.806,229,229,229
		c126.194,0,229-102.807,229-229S383.694,28.5,257.5,28.5z"/>
	<path fill="#FFFFFF" d="M330,411H168l-59-59h221c16.692,0,30.5-13.808,30.5-30.5S346.692,291,330,291H168l-59-59h221
		c50.078,0,89.5,39.42,89.5,89.5C419.5,371.576,380.078,411,330,411z M200,214l-91-92h108l41-41h75l-41,41h118l-59,59H233L200,214z"
		/>
</g>
</svg>
