<?xml version="1.0" encoding="utf-8"?>
<!DOCTYPE svg PUBLIC "-//W3C//DTD SVG 1.1//EN" "http://www.w3.org/Graphics/SVG/1.1/DTD/svg11.dtd">
<svg role="img" version="1.1" id="Layer_1" xmlns="http://www.w3.org/2000/svg" xmlns:xlink="http://www.w3.org/1999/xlink" x="0px" y="0px"
	 width="1280px" height="800px" viewBox="0 0 1280 800" enable-background="new 0 0 1280 800" xml:space="preserve">
<title>Signature of Sebbe</title>
<desc>Signed by Sebbe, assuring the best UX Design professional services.</desc>
<g id="Signature">
	<path id="Underline" d="M117.1,593.461c-82.1-11.021,84.513-19.678,166.443-50.924c66.069-0.754-54.436,22.438-70.048,26.836
		c189.451-4.59,1121.452-84.313,1008.182-53.952C959,527.772,274.947,578.45,117.1,593.461z"/>
	<path id="_x35_-E" stroke="#000000" d="M795.462,484.764C703,494,731.566,359.211,847.022,333.661
		c73.258-16.212,9.926,78.614-85.565,103.769c-14.79,72.57,126.337,12.963,156.186,4.193
		C951.488,435.564,854.686,478.848,795.462,484.764z M846.382,346.701c-44.035,14.282-75.768,52.748-82.679,80.997
		C841.947,404.283,890.948,332.247,846.382,346.701z"/>
	<path id="_x34_-B" stroke="#000000" d="M615.104,406.863c-25.005,83.97,52.093,52.42,64.843,30.255
		c-27.5-15.835,2.418-82.317,24.838-82.317c9.12,0,15.162,35.981-5.84,74.222c13.348,4.403,40.836,3.789,62.335-0.49l-2.416,8.333
		c-13.75,4.086-49.417,8.418-67.639,4.957c-15.278,20.71-42.993,41.896-68.022,40.28c-77.257-4.986-13.445-160.086,130.722-262.584
		C837.947,159.782,711.447,320.782,615.104,406.863z M618.947,394.282c73-69.5,162.472-181.5,114.079-142.083
		C694.772,283.357,629.349,353.725,618.947,394.282z"/>
	<path id="_x33_-B" stroke="#000000" d="M469.447,415.283c-0.5,85,72.553,22.411,67.84,13.619
		c-12.84-23.951-1.807-65.657,35.5-64.101c9.112,0.38-2.38,42.162-8.84,56.222c15.58,3.039,30.12-7.32,42.28-16.061l3.8,2.54
		c-17.1,17.86-36.48,33.94-60.801,34.32c-16.34,17.101-42.959,41.257-68.021,40.28c-37.759-1.472-79.593-131.293,118.741-262.584
		C665.772,175.944,598.447,308.782,469.447,415.283z M468.947,407.783c46-28.538,164.204-188.148,122.84-164.824
		C542.447,270.782,468.947,360.811,468.947,407.783z"/>
	<path id="_x32_-E" stroke="#000000" d="M458.79,419.063c-18.6,21.648-193.26,129.354-144.022-4.08
		c23.68-64.172,110.846-109.867,130.342-72.082c8.538,16.547-19.162,59.882-113.162,77.382c-36,93.138,103.282,13.3,123.423-2.66
		L458.79,419.063z M428.947,350.282c-23-21.942-82.5,33-95.5,64.501C389.947,408.556,440.725,361.519,428.947,350.282z"/>
	<path id="_x31_-S" stroke="#000000" d="M319.393,387.702c-30.946,94.401-189.39,121.947-247.273,91.003
		c-103.673-55.422,172.08-57.703,172.08-57.703s-219.349,23.472-150.61,44.041c80.357,24.047,193.357-33.26,201.413-69.22
		c5.758-25.701-160.845-25.243-148.174-73.08c7.173-27.083,125.451-103.224,237.424-84.015c20.106,3.449-40.385,29.27-23.489,13.554
		c-87.483-8.5-192.859,57.234-188.216,72.064C181.211,352.012,327.947,350.811,319.393,387.702z"/>
</g>
</svg>
